<?xml version='1.0' encoding='utf-8'?>
<svg xmlns="http://www.w3.org/2000/svg" enable-background="new 0 0 550 400" version="1.1" viewBox="0 0 550 400">
<g clip-rule="evenodd" fill-rule="evenodd">
	<radialGradient id="ak" cx="389.88" cy="326.85" r="151.84" gradientUnits="userSpaceOnUse">
		<stop stop-color="#6C798A" offset="0"/>
		<stop stop-color="#444B55" offset="1"/>
	</radialGradient>
	<path d="m338.78 234.68l-9.7-3.325c1.14-2.536 2.406-5.011 3.8-7.425l0.35 0.55 0.851-1.5c1.895-3.509 3.961-6.784 6.2-9.824 1.408-1.775 2.9-3.509 4.475-5.2 3.353-3.603 6.835-6.786 10.45-9.55l4.45 10.025c-2.737 2.194-5.388 4.669-7.95 7.425-5.363 5.752-9.672 12.026-12.926 18.824zm-17.525 37.75l10.125 0.375c0.685 15.036 5.56 28.137 14.625 39.3 10.833 13.367 24.483 20.051 40.95 20.051 16.434 0 30.866-6.667 43.3-20 1.2-1.334 2.366-2.667 3.5-4 10.1-12.467 15.667-27.167 16.7-44.101 0.967-16.7-2.717-31.217-11.05-43.55-1.101-1.6-2.25-3.134-3.45-4.6-10.9-13.367-24.566-20.05-41-20.05-8.866 0-17.141 1.941-24.825 5.825l-4.3-9.975c0.08-0.041 0.164-0.082 0.25-0.125 0.467 1.023 0.892 1.965 1.274 2.825 0.5 1.1 0.934 2.083 1.301 2.95 0.366-0.2 0.75-0.383 1.149-0.55 1.767-0.833 3.351-1.533 4.75-2.1-0.533-1.434-0.916-2.517-1.149-3.25-1 0.5-2.601 1.283-4.801 2.35-0.345-0.889-0.728-1.855-1.149-2.9 8.428-3.967 17.461-5.95 27.1-5.95h1.351c3.092 0.062 6.1 0.329 9.024 0.8 14.339 2.362 26.564 9.762 36.675 22.2 12.434 15.366 18.017 33.916 16.75 55.649-1.3 21.7-9.083 40.217-23.35 55.551-13.967 15-30.116 22.683-48.45 23.05h-1.349c-18.934 0-34.617-7.684-47.05-23.05-10.742-13.211-16.375-28.786-16.901-46.725zm1.7-21.525c1.089-5.743 2.689-11.234 4.8-16.476l9.7 3.2c-2.005 4.707-3.521 9.657-4.55 14.85l-9.95-1.574zm-1.35 9.9l9.95 1.575c-0.035 0.526-0.068 1.051-0.1 1.575-0.095 1.61-0.145 3.202-0.15 4.774l-10.075-0.6c0.026-1.494 0.084-3.002 0.176-4.525 0.054-0.942 0.12-1.875 0.199-2.799z" fill="url(#ak)"/>
	<radialGradient id="au" cx="367.1" cy="319.8" r="152.95" gradientUnits="userSpaceOnUse">
		<stop stop-color="#5A5E72" offset="0"/>
		<stop stop-color="#2D3039" offset="1"/>
	</radialGradient>
	<path d="m340.28 213.15c4.302-5.885 9.234-10.901 14.8-15.05l0.125 0.3c-3.615 2.764-7.098 5.948-10.45 9.55-1.574 1.692-3.066 3.425-4.475 5.2zm27.125-22.375c5.386-2.483 11.21-4.358 17.475-5.625 3.77-0.259 7.411-0.326 10.925-0.2h-1.25c-9.639 0-18.672 1.983-27.1 5.95-0.018-0.045-0.035-0.087-0.05-0.125zm-1.4 0.65c0.028 0.054 0.054 0.104 0.075 0.15-0.086 0.043-0.17 0.084-0.25 0.125l-0.075-0.15c0.083-0.042 0.166-0.084 0.25-0.125zm-46.9 80.925l2.15 0.075c0.526 17.939 6.159 33.515 16.9 46.726 12.433 15.366 28.116 23.05 47.05 23.05h1.349c18.334-0.367 34.483-8.05 48.45-23.05 14.267-15.334 22.05-33.851 23.35-55.551 1.267-21.733-4.316-40.283-16.75-55.649-10.11-12.438-22.336-19.838-36.675-22.2 18.732 2.73 33.333 11.772 43.8 27.125l0.601 0.8 0.8-0.55c2.387-1.705 4.536-3.104 6.45-4.2 10.407 15.633 14.982 33.975 13.725 55.025-1.399 24.033-10 44.533-25.8 61.5-15.767 16.934-34.066 25.399-54.9 25.399-20.866 0-38.133-8.449-51.8-25.35-12.153-14.978-18.386-32.694-18.7-53.15zm7.75-41.75c1.328-3.164 2.828-6.238 4.5-9.225l1.525 2.55c-1.394 2.414-2.66 4.889-3.8 7.425l-2.225-0.75zm0.9 3.825c-2.11 5.241-3.711 10.732-4.8 16.476l-2.025-0.325c1.073-5.855 2.632-11.473 4.675-16.851l2.15 0.7zm-8.175 26.05l2.024 0.325c-0.078 0.924-0.145 1.857-0.199 2.8-0.092 1.523-0.149 3.031-0.176 4.525l-2.1-0.125c0.037-1.308 0.096-2.624 0.175-3.95 0.071-1.202 0.163-2.394 0.276-3.575z" fill="url(#au)"/>
	<path d="m186.58 167.65c3.831 2.83 7.406 6.28 10.725 10.35 1.2 1.467 2.35 3 3.45 4.6 8.333 12.333 12.017 26.85 11.05 43.55-1.033 16.933-6.6 31.633-16.7 44.1-1.133 1.333-2.3 2.667-3.5 4-12.434 13.333-26.867 20-43.3 20-16.466 0-30.117-6.684-40.95-20.05-10.8-13.3-15.65-29.351-14.55-48.15 1.133-18.8 7.883-34.833 20.25-48.1 12.4-13.333 26.817-20 43.25-20 7.458 0 14.35 1.375 20.675 4.125l-2.45 4.75c-1.473-0.624-2.981-1.166-4.525-1.625-0.733-0.233-1.467-0.434-2.2-0.6-0.4-0.1-0.8-0.184-1.2-0.25-2.5-0.533-5.083-0.867-7.75-1-0.1-0.033-0.2-0.05-0.3-0.05-0.833-0.033-1.667-0.05-2.5-0.05-0.667 0-1.316 0.017-1.95 0.05h-0.05c-14.3 0.5-26.9 6.617-37.8 18.35-2.233 2.4-4.267 4.9-6.1 7.5-3.667 5.2-6.533 10.783-8.6 16.75-2.233 6.3-3.55 13.05-3.95 20.25-0.633 10.066 0.617 19.3 3.75 27.699 2.233 6 5.433 11.584 9.6 16.75 0.233 0.301 0.483 0.601 0.75 0.9 0.6 0.733 1.233 1.45 1.9 2.15 9.5 10.233 21.167 15.35 35 15.35 0.833 0 1.667-0.017 2.5-0.05 5.7-0.267 11.15-1.434 16.35-3.5 0.1-0.066 0.216-0.117 0.35-0.15l10.85-6.05c0.2-0.167 0.417-0.333 0.65-0.5 0.1-0.066 0.2-0.134 0.3-0.2 0.1-0.1 0.2-0.184 0.3-0.25 0.09-0.067 0.182-0.135 0.275-0.2l0.125-0.074c0.031-0.028 0.064-0.054 0.1-0.075 0.031-0.027 0.065-0.052 0.1-0.075l0.25-0.2c0.117-0.096 0.233-0.188 0.35-0.274l0.7-0.601c2.267-1.866 4.467-3.934 6.6-6.2 11.4-12.267 17.617-27.083 18.65-44.449 0.067-0.867 0.117-1.733 0.15-2.601 0.133-5.566-0.3-10.883-1.3-15.95-0.033-0.066-0.05-0.149-0.05-0.25-0.033-0.166-0.067-0.333-0.1-0.5-2-9.366-6.017-17.766-12.05-25.2-0.805-0.988-1.63-1.938-2.475-2.85l0.275-0.5-0.3-0.5c-1.412-2.22-3.595-4.32-6.55-6.3l1.925-3.85zm162.22 59.4c-2.072 2.939-3.89 6.006-5.45 9.2l-4.574-1.575c3.254-6.798 7.563-13.072 12.925-18.825 2.563-2.756 5.213-5.23 7.95-7.425l2.1 4.675c-2.357 1.923-4.641 4.072-6.85 6.45-2.234 2.4-4.267 4.9-6.101 7.5zm43.9-25.85c-7.305 0.255-14.163 1.972-20.575 5.149l-2-4.675c7.685-3.883 15.959-5.825 24.825-5.825 16.434 0 30.1 6.683 41 20.05 1.2 1.466 2.35 3 3.45 4.6 8.333 12.333 12.017 26.85 11.05 43.55-1.033 16.934-6.601 31.634-16.7 44.101-1.134 1.333-2.3 2.666-3.5 4-12.434 13.333-26.866 20-43.3 20-16.467 0-30.117-6.684-40.95-20.051-9.065-11.163-13.94-24.264-14.625-39.3l4.825 0.175c0.349 6.66 1.615 12.919 3.8 18.775 2.233 6 5.434 11.583 9.6 16.75 0.233 0.3 0.483 0.6 0.75 0.9 0.601 0.733 1.233 1.449 1.9 2.149 9.5 10.233 21.167 15.351 35 15.351 0.833 0 1.667-0.017 2.5-0.051 5.7-0.267 11.15-1.433 16.35-3.5 0.101-0.066 0.217-0.116 0.351-0.149l10.85-6.05c0.2-0.167 0.417-0.334 0.65-0.5 0.1-0.067 0.2-0.134 0.3-0.2 0.1-0.101 0.2-0.184 0.3-0.25 0.091-0.068 0.183-0.135 0.275-0.2l0.125-0.075c0.03-0.028 0.063-0.053 0.1-0.075 0.031-0.026 0.064-0.052 0.101-0.074l0.25-0.2c0.116-0.096 0.233-0.188 0.35-0.275l0.7-0.6c2.267-1.867 4.467-3.934 6.6-6.2 11.4-12.267 17.617-27.083 18.65-44.45 0.066-0.866 0.116-1.733 0.149-2.6 0.134-5.566-0.3-10.884-1.3-15.95-0.033-0.066-0.05-0.15-0.05-0.25-0.033-0.167-0.066-0.333-0.1-0.5-2-9.366-6.017-17.767-12.051-25.2-6.733-8.267-14.633-13.75-23.699-16.45-0.733-0.233-1.467-0.433-2.2-0.6-0.4-0.1-0.8-0.184-1.2-0.25-2.5-0.533-5.083-0.866-7.75-1-0.1-0.033-0.2-0.05-0.3-0.05-0.834-0.033-1.667-0.05-2.5-0.05-0.667 0-1.316 0.017-1.95 0.05h-0.051zm-59.8 51.275c1.028-5.192 2.545-10.143 4.55-14.85l4.575 1.5c-0.667 1.529-1.275 3.088-1.825 4.675-1.078 3.041-1.945 6.183-2.601 9.425l-4.699-0.75zm-1.35 9.9l4.75 0.75c-0.017 0.311-0.033 0.619-0.05 0.925-0.105 1.676-0.155 3.326-0.15 4.95l-4.8-0.275c6e-3 -1.572 0.056-3.164 0.15-4.774 0.031-0.525 0.065-1.05 0.1-1.576zm-60.35-51.9c-1-0.212-2.034-0.354-3.1-0.425-0.281-0.019-0.564-0.035-0.85-0.05 0.289-4.346 0.539-8.096 0.75-11.25 0.041-0.696 0.083-1.362 0.125-2 0.081-1.273 0.155-2.431 0.225-3.475v-1.25c0.297-0.225 0.572-0.4 0.825-0.525h-0.025c0.351-0.151 0.676-0.193 0.975-0.125 0.479 0.15 0.904 0.566 1.275 1.25l-0.2 17.85zm-10.15 72.725l-3.05-0.675c0.18-3.269 0.405-7.502 0.675-12.7 0.062-1.281 0.128-2.623 0.2-4.025 0.031-0.668 0.065-1.352 0.1-2.05 0.061-1.031 0.119-2.09 0.175-3.175 0.288-5.99 0.513-10.915 0.675-14.775 0.105-2.749 0.181-4.958 0.225-6.625 0.099-0.102 0.199-0.193 0.3-0.274l0.05-0.025 0.025-0.025c0.672-0.736 1.355-1.17 2.05-1.3 0.033-5e-3 0.066-0.013 0.1-0.024 0.017-7e-3 0.033-0.015 0.05-0.025 0.06-0.01 0.118-0.01 0.175 0 0.08 0.016 0.155 0.016 0.225 0 0.192-0.017 0.384 0 0.575 0.05 0.015 0.013 0.032 0.021 0.05 0.025 0.042 0.015 0.083 0.022 0.125 0.024 0.633 0.237 1.267 0.704 1.9 1.4l-4.625 44.199z" fill="#ccc"/>
	<path d="m161.15 192.92l5.45-28.575c0.4 0.066 0.8 0.15 1.2 0.25 0.733 0.167 1.467 0.367 2.2 0.6l-3.55 17.375-5.3 10.35zm190.85 36.825l-3.2-2.7c1.834-2.6 3.867-5.1 6.101-7.5 2.209-2.378 4.492-4.527 6.85-6.45l1.4 3.176c-1.101 1.039-2.184 2.131-3.25 3.274-3.001 3.2-5.634 6.6-7.901 10.2zm20.125-23.4c6.412-3.178 13.271-4.895 20.575-5.149v0.399c-6.955 0.929-13.489 3.263-19.601 7l-0.974-2.25zm28.775 34.65l-0.101-0.25-2.45 12.675-0.399 1.925c-0.233-0.267-0.483-0.5-0.75-0.699-0.566-0.5-1.15-0.884-1.75-1.15l9.8-51.25c0.4 0.066 0.8 0.15 1.2 0.25 0.733 0.167 1.467 0.366 2.2 0.6l-7.75 37.899zm-1.75 29l21.3 44.7-0.7 0.6c-0.116 0.088-0.233 0.18-0.35 0.275l-0.25 0.2c-0.036 0.022-0.069 0.048-0.101 0.074-0.036 0.022-0.069 0.047-0.1 0.075l-0.124 0.076c-0.093 0.065-0.185 0.132-0.275 0.2l-20.85-44.15-0.05-0.1c0.166-0.167 0.333-0.334 0.5-0.5 0.367-0.467 0.7-0.95 1-1.45zm45.15-25.25h0.101c0.033 0.167 0.066 0.333 0.1 0.5l-0.201-0.5zm-93.95 64.65l33.875-34.65 2.75 0.1c0.174 0.07 0.349 0.137 0.525 0.2l0.3 0.25-32.9 33.55c8.767 10.667 19.55 16.617 32.35 17.851v0.2c-13.833 0-25.5-5.117-35-15.351-0.667-0.7-1.3-1.416-1.9-2.15zm-6.2-20.15l-4.15 2.5c-2.185-5.856-3.451-12.115-3.8-18.775l5 0.176c0.322 5.669 1.306 11.036 2.95 16.099zm-8.05-20.25c-5e-3 -1.624 0.045-3.274 0.15-4.95 0.017-0.306 0.033-0.614 0.05-0.925l4.95 0.8c3e-3 0.039 3e-3 0.081 0 0.125-0.11 1.777-0.16 3.527-0.15 5.25l-5-0.3zm8.4-23.15c-0.832 2.635-1.515 5.352-2.05 8.15l-4.851-0.775c0.655-3.242 1.522-6.384 2.601-9.425l4.3 2.05zm-138.65-38.5l-0.2-0.5h0.1c0.033 0.167 0.067 0.334 0.1 0.5zm-45.35 24.75l21.3 44.7-0.7 0.601c-0.117 0.087-0.233 0.179-0.35 0.274l-0.25 0.2c-0.035 0.023-0.069 0.048-0.1 0.075-0.036 0.021-0.069 0.047-0.1 0.075l-0.125 0.074c-0.093 0.065-0.185 0.133-0.275 0.2l-20.85-44.149-0.05-0.1c0.167-0.166 0.333-0.333 0.5-0.5 0.367-0.467 0.7-0.95 1-1.45zm-11.65 5.05l0.3 0.25-32.9 33.55c8.767 10.666 19.55 16.616 32.35 17.85v0.2c-13.833 0-25.5-5.116-35-15.35-0.667-0.7-1.3-1.417-1.9-2.15l34.8-35.6c0.733 0.534 1.517 0.95 2.35 1.25zm-43-29.2c-1.8 5.7-2.883 11.767-3.25 18.2-0.567 9.1 0.4 17.5 2.9 25.199l-4.15 2.5c-3.133-8.399-4.383-17.633-3.75-27.699 0.4-7.2 1.717-13.95 3.95-20.25l4.3 2.05zm48.2-44.65v0.4c-12.233 1.633-23.167 7.617-32.8 17.95-3 3.2-5.633 6.6-7.9 10.2l-3.2-2.7c1.833-2.6 3.867-5.1 6.1-7.5 10.9-11.733 23.5-17.85 37.8-18.35z" fill="#069"/>
	<radialGradient id="av" cx="392.94" cy="279.45" r="62.164" gradientUnits="userSpaceOnUse">
		<stop stop-color="#0172A0" offset=".149"/>
		<stop stop-color="#014E6D" offset="1"/>
	</radialGradient>
	<path d="m397.7 272.05l20.85 44.15c-0.1 0.066-0.2 0.149-0.3 0.25-0.1 0.066-0.2 0.133-0.3 0.2-0.233 0.166-0.45 0.333-0.65 0.5l-10.85 6.05c-0.134 0.033-0.25 0.083-0.351 0.149l-17.049-47.949c-0.366-0.067-0.733-0.15-1.1-0.25-0.167-0.034-0.316-0.067-0.45-0.101-0.177-0.063-0.352-0.13-0.525-0.2h0.176c15.851-4.094 17.576-11.276 5.175-21.55l-4-9.274 0.375-3.551 0.175 0.476 0.3-3.351 1.226-13.35 0.449-4.925 1.849-17.724c1.467-0.199 2.967-0.333 4.5-0.399 0.1 0 0.2 0.017 0.3 0.05 2.667 0.134 5.25 0.467 7.75 1l-9.8 51.25c0.6 0.267 1.184 0.65 1.75 1.15 0.267 0.199 0.517 0.433 0.75 0.699 0.166 0.2 0.35 0.4 0.55 0.601 0.2 0.267 0.384 0.533 0.55 0.8 0.566 0.833 1.017 1.733 1.351 2.7l0.675-0.226 0.024 0.025 5.95-2v-0.025l37.25-12.475 0.2 0.5c0 0.1 0.017 0.184 0.05 0.25 1 5.066 1.434 10.384 1.3 15.95l-45.649 6.3c-0.3 0.767-0.65 1.517-1.05 2.25-0.301 0.5-0.634 0.983-1 1.45-0.167 0.166-0.334 0.333-0.5 0.5-0.034 0.033-0.084 0.083-0.15 0.149l0.199-0.049zm-13.475 2.7l-33.875 34.65c-0.267-0.301-0.517-0.601-0.75-0.9-4.166-5.167-7.366-10.75-9.6-16.75l4.15-2.5 25.15-15.05 14.925 0.55zm-32.225-45l19.35 16.075-28-9.575c1.561-3.194 3.378-6.261 5.45-9.2l3.2 2.7zm18.65 28.7l-26.15-12.6-4.3-2.05c0.55-1.587 1.158-3.146 1.825-4.675l35.3 11.65 1.875 1.55 2.675 6c-0.341 0.547-0.624 1.13-0.85 1.75l-10.375-1.625zm3.525 12.825l2.75-1.65 6.275 1c0.362 0.329 0.746 0.612 1.149 0.85-0.488 0.115-0.988 0.224-1.5 0.325l-8.674-0.525z" fill="url(#av)"/>
	<path d="m358.22 93.15c-10.205 1.26-15.464 2.102-15.774 2.525l-0.7 0.65c-7.947 2.04-12.905 4.24-14.875 6.6-1.44 1.962-0.482 4.129 2.875 6.5 11.26 0.574 22.144 2.207 32.65 4.9h0.125c1.092 0.3 2.217 0.6 3.375 0.9 2 0.533 3.866 1.033 5.6 1.5 8.806 2.269 14.438 3.411 16.9 3.425 5.942 2e-3 9.659-1.165 11.149-3.5h-0.024c1.46-2.563 2.335-5.971 2.625-10.225 0.128-3.959-4.38-7.451-13.525-10.475-9.658-3.183-19.791-4.117-30.401-2.8zm0.975 42.9c-0.017-9e-3 -0.033-0.018-0.05-0.025l-0.75-0.575-0.801-0.6 11.976-16.55c-1.316-0.359-2.708-0.734-4.175-1.125-0.936-0.239-1.853-0.48-2.75-0.725l-12.125 17c-0.301-0.079-0.602-0.153-0.9-0.225l-0.025 0.075-0.149-0.1-0.05-0.025-0.775-0.55 11.95-16.7c-10.063-2.478-20.471-3.986-31.226-4.525l-0.3-0.025-0.225-0.15c-4.901-3.378-6.068-6.569-3.5-9.575 2.058-2.65 7.342-5.066 15.85-7.25 1.809-1.007 7.409-2.091 16.8-3.25 10.924-1.35 21.357-0.383 31.301 2.9 10.392 3.444 15.35 7.619 14.875 12.525-0.311 4.612-1.27 8.304-2.875 11.075h-0.025c-1.642 2.998-5.925 4.498-12.85 4.5-2.477 0.014-8.06-1.086-16.75-3.3l-12.451 17.2zm-165.1 0.3c-0.56-0.303-1.126-0.603-1.7-0.9l-0.1-0.05c-0.441-0.162-0.883-0.32-1.325-0.475 3.225-2.838 6.033-4.338 8.425-4.5v-0.025h0.275l0.025-0.075c2.932-5.767 6.049-11.217 9.35-16.35 8e-3 -0.017 0.017-0.033 0.025-0.05 2.25-4.688 3.375-11.979 3.375-21.875 3e-3 -5.861-0.88-10.395-2.65-13.6-1.798-2.299-3.081-4.365-3.85-6.2l-35.825-4.875-0.125-0.1c-1.704-1.579-2.504-4.038-2.4-7.375 0.06-2.863 1.518-4.854 4.375-5.975-3.55-1.514-5.591-2.789-6.125-3.825l1.8-1.8 0.15-0.2c3.243 2.133 7.285 4.1 12.125 5.9l35.2 5.4 0.225 0.05 0.125 0.175c0.06 0.093 0.134 0.201 0.225 0.325v0.025l0.025 0.025 16.6 2.3c0.254-0.493 0.696-1.026 1.325-1.6l0.025-0.025c0.545-0.54 1.154-1.031 1.825-1.475v-0.025l1.45 0.275c0.043 8e-3 0.085 0.017 0.125 0.025 6.033 1.153 10.091 1.945 12.175 2.375l0.15 0.05 0.1 0.075c1.021 0.958 1.688 1.741 2 2.35l-0.025-0.025c0.222 0.374 0.405 0.682 0.55 0.925l7.85 1.325c0.042-0.083 0.083-0.167 0.125-0.25 0.8-1.167 1.467-1.75 2-1.75 0.2 0 1.267 0.2 3.2 0.6 2.233 0.4 4.2 0.6 5.9 0.6 5.7 0 13.516-0.383 23.45-1.15 0.2 0.133 0.4 0.217 0.601 0.25 0.733 0.033 1.133 0.433 1.199 1.2-2.3 0.8-4.733 1.2-7.3 1.2-5.833 0-9.35 0.05-10.55 0.15-1.731 0.138-3.59 0.438-5.575 0.9l24.5 3.675 0.125 0.15c2.354 2.929 3.195 5.387 2.525 7.375-0.596 2.007-2.695 3.516-6.3 4.525l-0.075 0.025h-0.125l-27.5-3.7h-1.075l0.275-0.425-11.175-1.525h-0.025c-2.483 0.941-5.292 2.991-8.425 6.15-3.166 3.199-5.574 6.266-7.225 9.2l0.025-0.025c-0.471 0.914-1.754 2.705-3.85 5.375v0.025c-2.041 2.527-4.224 5.669-6.55 9.425l0.05-0.125 4.075-7.85c0.489-0.66 1.031-1.36 1.625-2.1v0.025c2.038-2.597 3.288-4.338 3.75-5.225l0.025-0.025c1.682-2.999 4.141-6.132 7.375-9.4 2.626-2.659 5.035-4.551 7.225-5.675l-1.6-0.225c-1.027 1.425-2.544 2.483-4.55 3.175l-0.125 0.025h-0.1c-1.182-0.132-2.298-0.266-3.35-0.4l0.5-0.95c0.893 0.106 1.835 0.214 2.825 0.325 1.541-0.538 2.749-1.313 3.625-2.325 0.193-0.213 0.368-0.438 0.525-0.675 1.35-2.714 2.042-5.572 2.075-8.575-6e-3 -0.71-0.239-1.561-0.7-2.55v0.025c-0.127-0.262-0.353-0.67-0.675-1.225l-0.025-0.025c-0.277-0.504-0.844-1.154-1.7-1.95-1.838-0.381-5.079-1.015-9.725-1.9 0.489 0.721 0.814 1.704 0.975 2.95v0.025c0.068 0.548 0.102 1.165 0.1 1.85 6e-3 2.52-0.585 5.311-1.775 8.375-0.01 0.025-0.019 0.05-0.025 0.075h-1.1c0.062-0.139 0.12-0.281 0.175-0.425 1.144-2.936 1.719-5.611 1.725-8.025-1e-3 -0.648-0.035-1.231-0.1-1.75-0.268-2.044-1.067-3.228-2.4-3.55l-1.45-0.425 0.7 0.225c-0.655 0.32-1.206 0.704-1.65 1.15l-0.025 0.025c-0.416 0.379-0.732 0.729-0.95 1.05l3.075 0.65 0.05 0.375c0.458 3.917-0.059 7.484-1.55 10.7h-1.125c1.525-3.065 2.1-6.474 1.725-10.225l-2.975-0.625h-0.05l-16.225-2.425c2.243 3.826 1.56 7.518-2.05 11.075l15.15 2.025v0.025c0.679-0.024 1.029 9e-3 1.05 0.1l1.7 0.25-0.525 0.925-0.925-0.125c0.11 0.447 0.227 0.847 0.35 1.2l-0.625 1.15c-0.314-0.671-0.589-1.538-0.825-2.6l-16.2-2.15c-0.119 0.082-0.236 0.165-0.35 0.25l-0.175 0.125-5.575-0.75c0.53 1.484 1.646 3.309 3.35 5.475h-0.025c1.88 3.325 2.821 8.042 2.825 14.15 0 10.136-1.167 17.619-3.5 22.45l-0.025-0.025c-3.234 5.029-6.292 10.363-9.175 16l0.15-0.175-0.4 0.675c-0.067 0.133-0.133 0.267-0.2 0.4l-0.65 1.275-0.775 0.425c-0.01 0.021-0.018 0.047-0.025 0.075-0.086 0.109-0.203 0.234-0.35 0.375-1.598 0.933-3.065 1.874-4.4 2.825zm-15.675 14.925c0.663-1.45 1.455-2.917 2.375-4.4 0.304 0.108 0.604 0.216 0.9 0.325 0.707 0.367 1.407 0.742 2.1 1.125-0.938 1.406-1.737 2.832-2.4 4.275-0.085 0.18-0.169 0.363-0.25 0.55-0.393 0.908-0.726 1.817-1 2.725l-0.45 0.875c-0.69-0.307-1.64-0.657-2.85-1.05-0.167-0.067-0.317-0.117-0.45-0.15-2.1-0.6-3.583-1.05-4.45-1.35 1.267-2.067 2.083-3.45 2.45-4.15 0.7 0.867 1.9 1.6 3.6 2.2 0.136-0.326 0.278-0.651 0.425-0.975zm-33.325 74.8c-0.103 1.848 0.355 3.498 1.375 4.95 1.075 1.548 2.508 2.439 4.3 2.675l0.975 0.05c0.332-0.04 0.682-0.099 1.05-0.175h0.025c1.171-0.265 2.263-0.881 3.275-1.851v-0.024c1.437-1.428 2.27-3.194 2.5-5.3v-0.025c0.079-0.9 0.045-1.75-0.1-2.55l0.8-1.601c0.426 1.29 0.559 2.698 0.4 4.226-0.263 2.509-1.229 4.593-2.9 6.25v0.024l-0.025 0.025c-0.316 0.284-0.633 0.551-0.95 0.8h-0.025c-1.152 0.873-2.652 1.365-4.5 1.476v0.024h-0.725c-2.055-0.266-3.722-1.308-5-3.125-1.309-1.894-1.833-4.085-1.575-6.575 0.263-2.509 1.229-4.592 2.9-6.25 0.238-0.244 0.497-0.47 0.775-0.675l-0.075 0.076c0.215-0.184 0.432-0.351 0.65-0.5l-1.8 3.5c-0.289 0.449-0.531 0.924-0.725 1.425l-0.875 1.7 0.05 0.325c0.059 0.392 0.126 0.767 0.2 1.125zm216.88-48.625c0.137 0.343 0.278 0.701 0.426 1.075-0.615 0.333-1.224 0.675-1.825 1.025l-0.101-0.25 0.025 0.125-1.65-5.8 3.125 3.825zm6.575-6.625c1.482 1.487 2.357 2.688 2.625 3.6-0.072 0.029-0.147 0.054-0.225 0.075l-2.4-3.675zm-2.55 20.6c0.462-0.224 0.928-0.441 1.4-0.65 0.015 0.039 0.031 0.081 0.05 0.125 0.422 1.044 0.805 2.011 1.149 2.9 2.2-1.066 3.801-1.85 4.801-2.35 0.233 0.733 0.616 1.816 1.149 3.25-1.399 0.566-2.983 1.267-4.75 2.1-0.399 0.167-0.783 0.35-1.149 0.55-0.367-0.867-0.801-1.85-1.301-2.95-0.383-0.86-0.808-1.801-1.274-2.825-0.021-0.047-0.047-0.096-0.075-0.15zm92.325 16.55c10.569 15.939 15.228 34.632 13.975 56.075-1.467 24.5-10.25 45.417-26.35 62.75-16.2 17.367-34.983 26.05-56.351 26.05-21.466 0-39.25-8.699-53.35-26.1-12.448-15.339-18.823-33.497-19.125-54.475l1.975 0.074c0.314 20.456 6.548 38.173 18.7 53.15 13.667 16.9 30.934 25.35 51.8 25.35 20.834 0 39.134-8.466 54.9-25.399 15.8-16.967 24.4-37.467 25.8-61.5 1.258-21.051-3.317-39.393-13.725-55.025 0.609-0.348 1.192-0.664 1.751-0.95zm-133.35 21.975c1.515-3.604 3.248-7.104 5.2-10.5l1.175 1.925c-1.672 2.986-3.172 6.061-4.5 9.225l-1.875-0.65zm56.05 30.125c0.226-0.62 0.509-1.203 0.85-1.75 0.39-0.649 0.856-1.249 1.4-1.8 0.024-0.025 0.05-0.051 0.074-0.075 0.239-0.245 0.497-0.47 0.775-0.675l-0.075 0.074c1.02-0.87 2.111-1.42 3.275-1.649 0.608-0.118 1.233-0.151 1.875-0.101h0.024c1.44 0.09 2.707 0.565 3.801 1.426 0.553 0.441 1.053 0.991 1.5 1.649l0.1 0.101 0.05 0.074c1.238 1.853 1.73 4.003 1.476 6.45-0.263 2.51-1.229 4.593-2.9 6.25v0.025l-0.025 0.024c-0.316 0.285-0.633 0.552-0.949 0.801h-0.025c-1.17 0.886-2.67 1.378-4.5 1.475v0.025h-0.725c-0.985-0.128-1.877-0.437-2.676-0.926-0.403-0.237-0.787-0.521-1.149-0.85-0.422-0.386-0.813-0.836-1.175-1.35-0.212-0.307-0.403-0.623-0.575-0.95-0.884-1.663-1.217-3.538-1-5.625 0.022-0.216 0.047-0.424 0.075-0.625 0.113-0.703 0.28-1.37 0.499-1.998zm-63.875 7.8c0.022-1.297 0.072-2.604 0.149-3.925 0.076-1.273 0.177-2.54 0.3-3.8l1.976 0.324c-0.113 1.182-0.205 2.373-0.275 3.575-0.079 1.326-0.138 2.643-0.175 3.95l-1.975-0.124zm8.45-34.15c-2.043 5.378-3.602 10.995-4.675 16.851l-1.975-0.3c1.102-5.964 2.693-11.688 4.774-17.176l1.876 0.625zm63.425 21.725c-0.031-2e-3 -0.065-2e-3 -0.101 0-1.533-0.085-2.925 0.391-4.175 1.425h-0.025c-6e-3 0.019-0.015 0.035-0.024 0.05-0.016 0.01-0.032 0.019-0.05 0.025-0.217 0.148-0.417 0.315-0.601 0.5-0.085 0.084-0.169 0.168-0.25 0.25-0.548 0.592-0.998 1.233-1.35 1.925-0.099 0.205-0.19 0.414-0.275 0.625-0.245 0.628-0.42 1.294-0.524 2-0.019 0.156-0.035 0.314-0.051 0.475v0.025c-0.261 2.121 0.181 3.996 1.325 5.625 0.051 0.072 0.101 0.139 0.15 0.2 0.914 1.232 2.072 2.016 3.475 2.35 0.217 0.053 0.442 0.095 0.675 0.125l0.525 0.025-0.25-0.025 0.7 0.05c0.332-0.04 0.682-0.098 1.05-0.175h0.025c1.171-0.264 2.263-0.881 3.274-1.85v-0.025c0.639-0.635 1.155-1.334 1.55-2.1 0.4-0.763 0.684-1.588 0.851-2.476 0.04-0.239 0.073-0.48 0.1-0.725v-0.025c0.011-0.118 0.019-0.235 0.025-0.35 0.11-2.005-0.356-3.755-1.4-5.25v0.025c-0.391-0.59-0.841-1.081-1.35-1.476l-0.025-0.024c-0.92-0.748-1.995-1.148-3.225-1.2h-0.049zm-1.675 6.05c0.334-0.3 0.733-0.434 1.2-0.4 0.3 0 0.584 0.101 0.851 0.301 0.1 0.1 0.216 0.233 0.35 0.399 0.3 0.434 0.417 0.967 0.35 1.601-0.066 0.566-0.283 1.05-0.649 1.449-0.367 0.367-0.767 0.551-1.2 0.551h-0.252c-0.396-0.057-0.729-0.232-1-0.525-0.055-0.057-0.104-0.115-0.15-0.175-0.185-0.287-0.301-0.596-0.35-0.925-0.025-0.199-0.025-0.407 0-0.625 0.033-0.601 0.267-1.101 0.7-1.5 0.033-0.068 0.083-0.118 0.15-0.151zm-118.65-192.82c0.089 0.189 0.172 0.381 0.25 0.575 1.555 3.623 0.896 7.022-1.975 10.2l26.675 3.6c3.086-0.896 4.911-2.179 5.475-3.85 0.487-1.68-0.263-3.772-2.25-6.275l-28.175-4.25zm-0.65 0.975c-0.137-0.314-0.287-0.614-0.45-0.9l-15.05-2.3c0.304 0.783 0.455 1.483 0.45 2.1-0.031 2.958-0.672 5.783-1.925 8.475l3.5 0.45c-0.016 0.019-0.024 0.044-0.025 0.075h0.7l10.775 1.475c2.755-2.921 3.431-6.046 2.025-9.375zm-15.7-3.75l-0.025-0.025v0.025l0.025 0.05v-0.05zm-1.45 11.575v-0.075c-6e-3 0.028-0.014 0.053-0.025 0.075h0.025zm-77.1-23.1c-0.345 0.085-0.67 0.185-0.975 0.3h-0.025c-2.73 0.917-4.13 2.659-4.2 5.225v0.025c-0.09 2.916 0.577 5.082 2 6.5l1.025 0.15 0.1 0.025h-0.075c0.586 0.061 1.303 0.153 2.15 0.275l38.825 5.25c0.064-0.052 0.131-0.102 0.2-0.15l0.025-0.025c4.109-3.653 4.792-7.461 2.05-11.425v0.025c-0.049-0.064-0.1-0.123-0.15-0.175l-39.075-6 0.025 0.025-1.7-0.05-0.025-0.025c-0.055 0.013-0.113 0.03-0.175 0.05zm-48.8 94.975c-6.517 3.94-12.684 9.04-18.5 15.3-15.833 16.967-24.45 37.466-25.85 61.5-1.433 24 4.733 44.483 18.5 61.449 13.667 16.9 30.934 25.351 51.8 25.351 20.833 0 39.133-8.467 54.9-25.4 15.8-16.967 24.4-37.467 25.8-61.5 0.349-5.838 0.249-11.463-0.3-16.875 0.702-0.02 1.368-0.053 2-0.1 0.544 5.486 0.645 11.178 0.3 17.075-1.467 24.5-10.25 45.416-26.35 62.75-16.2 17.366-34.983 26.05-56.35 26.05-21.467 0-39.25-8.7-53.35-26.101-14.067-17.333-20.383-38.267-18.95-62.8 1.467-24.5 10.267-45.417 26.4-62.75 3.9-4.189 7.95-7.872 12.15-11.05l0.025 1.275 1.475-0.825c2.09-1.227 4.19-2.344 6.3-3.349zm143.4 97.425l1.025-8.75-0.2-0.15c-1.958-1.677-3.774-2.109-5.45-1.3-0.26-0.07-0.518-0.096-0.775-0.075h-0.05c-0.228-0.045-0.453-0.028-0.675 0.05-0.891 0.158-1.758 0.691-2.6 1.601l0.075-0.051c-0.192 0.153-0.384 0.346-0.575 0.575l-0.125 0.125v0.175c-0.034 1.374-0.093 3.133-0.175 5.275-0.618-1.337-0.827-2.837-0.625-4.5 0.2-2.2 1.05-4.033 2.55-5.5 0.167-0.2 0.367-0.384 0.6-0.55 0.26-0.22 0.527-0.42 0.8-0.601 0.582-0.363 1.19-0.622 1.825-0.774 0.243-0.053 0.493-0.086 0.75-0.101 0.315-0.037 0.641-0.046 0.975-0.024h0.025c1.188 0.104 2.23 0.504 3.125 1.2 0.5 0.399 0.95 0.883 1.35 1.449 0.261 0.376 0.486 0.769 0.675 1.176 0.45 0.962 0.7 2.013 0.75 3.149 0.02 0.33 0.02 0.663 0 1-2e-3 0.159-0.011 0.317-0.025 0.476-0.022 0.209-0.047 0.418-0.075 0.625-0.096 0.555-0.229 1.088-0.4 1.6-0.243 0.684-0.559 1.325-0.95 1.925-0.327 0.477-0.702 0.927-1.125 1.351-0.231 0.224-0.464 0.432-0.7 0.624z"/>
	<radialGradient id="aw" cx="151.22" cy="288.95" r="151.85" gradientUnits="userSpaceOnUse">
		<stop stop-color="#6C798A" offset="0"/>
		<stop stop-color="#444B55" offset="1"/>
	</radialGradient>
	<path d="m181.4 152.6c0.117 0.056 0.233 0.114 0.35 0.175l-1.6 3.1c0.274-0.908 0.607-1.817 1-2.725 0.081-0.187 0.164-0.37 0.25-0.55zm-4.425 9.475c-6.326-2.75-13.217-4.125-20.675-4.125-16.433 0-30.85 6.667-43.25 20-12.367 13.267-19.117 29.3-20.25 48.1-1.1 18.8 3.75 34.851 14.55 48.15 10.833 13.366 24.483 20.05 40.95 20.05 16.434 0 30.867-6.667 43.3-20 1.2-1.333 2.367-2.667 3.5-4 10.1-12.467 15.667-27.167 16.7-44.1 0.967-16.7-2.716-31.217-11.05-43.55-1.1-1.6-2.25-3.133-3.45-4.6-3.319-4.07-6.894-7.521-10.725-10.35l4.55-9.125c4.223 3.181 8.165 7.022 11.825 11.525 12.433 15.367 18.017 33.917 16.75 55.65-1.3 21.7-9.083 40.217-23.35 55.55-13.967 15-30.117 22.684-48.45 23.05h-1.35c-18.933 0-34.617-7.684-47.05-23.05-12.467-15.333-18.05-33.85-16.75-55.55 1.267-21.733 9.05-40.284 23.35-55.65 14.267-15.333 30.867-23 49.8-23h1.35c7.586 0.152 14.645 1.561 21.175 4.225-0.147 0.324-0.289 0.649-0.425 0.975-1.7-0.6-2.9-1.333-3.6-2.2-0.367 0.7-1.183 2.083-2.45 4.15 0.867 0.3 2.35 0.75 4.45 1.35 0.133 0.034 0.283 0.083 0.45 0.15 1.21 0.393 2.16 0.743 2.85 1.05l-2.725 5.325z" fill="url(#aw)"/>
	<radialGradient id="ax" cx="128.45" cy="281.9" r="152.95" gradientUnits="userSpaceOnUse">
		<stop stop-color="#5A5E72" offset="0"/>
		<stop stop-color="#2D3039" offset="1"/>
	</radialGradient>
	<path d="m183.8 148.32c0.063 0.034 0.121 0.067 0.175 0.1l-2.225 4.35c-0.117-0.061-0.233-0.119-0.35-0.175 0.663-1.443 1.462-2.869 2.4-4.275zm-3-1.45c-0.92 1.483-1.712 2.95-2.375 4.4-6.53-2.665-13.588-4.073-21.175-4.225h-1.35c-18.933 0-35.533 7.667-49.8 23-14.3 15.367-22.083 33.917-23.35 55.65-1.3 21.7 4.283 40.217 16.75 55.55 12.433 15.366 28.117 23.05 47.05 23.05h1.35c18.333-0.366 34.483-8.05 48.45-23.05 14.267-15.333 22.05-33.85 23.35-55.55 1.267-21.733-4.317-40.284-16.75-55.65-3.66-4.502-7.602-8.344-11.825-11.525l2.15-4.275c18.362 13.059 28.454 30.983 30.275 53.775l0.1 0.875 0.825 0.05c2.58 0.195 4.871 0.27 6.875 0.225 0.549 5.412 0.648 11.037 0.3 16.875-1.4 24.033-10 44.533-25.8 61.5-15.767 16.934-34.067 25.4-54.9 25.4-20.867 0-38.133-8.45-51.8-25.351-13.767-16.966-19.933-37.449-18.5-61.449 1.4-24.034 10.017-44.534 25.85-61.5 5.816-6.26 11.983-11.36 18.5-15.3 17.798-8.525 36.398-9.35 55.8-2.475z" fill="url(#ax)"/>
	<radialGradient id="ay" cx="154.29" cy="241.55" r="62.164" gradientUnits="userSpaceOnUse">
		<stop stop-color="#0172A0" offset=".149"/>
		<stop stop-color="#014E6D" offset="1"/>
	</radialGradient>
	<path d="m105.85 207.95l-4.3-2.05c2.067-5.967 4.934-11.55 8.6-16.75l3.2 2.7 32.05 26.6c0.1-0.134 0.217-0.267 0.35-0.4 0.467-0.5 0.933-0.934 1.4-1.3 0.067-0.033 0.133-0.066 0.2-0.1 0.433-0.367 0.883-0.667 1.35-0.9l5.35-52.05c1.467-0.2 2.967-0.333 4.5-0.4 0.1 0 0.2 0.017 0.3 0.05 2.667 0.133 5.25 0.467 7.75 1l-5.45 28.575-12.9 25.075c-0.218 0.149-0.435 0.316-0.65 0.5l0.075-0.075c-0.278 0.205-0.537 0.431-0.775 0.675-1.671 1.658-2.637 3.741-2.9 6.25-0.258 2.49 0.267 4.682 1.575 6.575 1.278 1.817 2.945 2.859 5 3.125h0.725v-0.024c1.848-0.11 3.348-0.603 4.5-1.476h0.025c0.316-0.249 0.633-0.516 0.95-0.8l0.025-0.025v-0.025c1.671-1.657 2.638-3.741 2.9-6.25 0.159-1.527 0.025-2.936-0.4-4.226l1.125-2.25c0.33 0.448 0.588 0.982 0.775 1.601l0.025 0.075 0.5-0.15 0.025 0.05 2.8-0.95 4.45-1.449 0.025-0.025 36.625-12.275 0.2 0.5c0 0.101 0.017 0.184 0.05 0.25 1 5.067 1.434 10.384 1.3 15.95l-45.65 6.3c-0.3 0.767-0.65 1.517-1.05 2.25-0.3 0.5-0.633 0.983-1 1.45-0.167 0.167-0.333 0.334-0.5 0.5-0.033 0.033-0.083 0.084-0.15 0.15l0.2-0.05 20.85 44.149c-0.1 0.066-0.2 0.15-0.3 0.25-0.1 0.066-0.2 0.134-0.3 0.2-0.233 0.167-0.45 0.333-0.65 0.5l-10.85 6.05c-0.133 0.033-0.25 0.084-0.35 0.15l-17.05-47.95c-0.367-0.066-0.733-0.15-1.1-0.25-0.167-0.033-0.316-0.066-0.45-0.1-0.833-0.301-1.617-0.717-2.35-1.25l-34.8 35.6c-0.267-0.3-0.517-0.6-0.75-0.9-4.167-5.166-7.367-10.75-9.6-16.75l4.15-2.5 37-22.149c-0.033-0.167-0.05-0.334-0.05-0.5-0.133-0.834-0.167-1.684-0.1-2.55 0-0.233 0.017-0.434 0.05-0.601l-36.55-17.6z" fill="url(#ay)"/>
	<linearGradient id="az" x1="242.79" x2="241.27" y1="63.877" y2="74.402" gradientUnits="userSpaceOnUse">
		<stop stop-color="#666" offset="0"/>
		<stop stop-color="#B7B7B7" offset=".502"/>
		<stop stop-color="#666" offset="1"/>
	</linearGradient>
	<path d="m232.15 74.4l-1.7-0.25c-0.021-0.091-0.371-0.125-1.05-0.1v-0.025l-15.15-2.025c3.609-3.558 4.292-7.25 2.05-11.075l16.225 2.425h0.05l2.975 0.625c0.375 3.751-0.2 7.16-1.725 10.225h-1.575l-0.1 0.2zm35.9-4.75c1.406 3.329 0.73 6.454-2.025 9.375l-10.775-1.475h-0.7c1e-3 -0.031 0.01-0.056 0.025-0.075l-3.5-0.45c1.252-2.692 1.894-5.518 1.925-8.475 4e-3 -0.616-0.146-1.316-0.45-2.1l15.05 2.3c0.163 0.286 0.313 0.585 0.45 0.9zm-15.725-3.75h0.025v0.05l-0.025-0.05zm-1.425 11.575h-0.025c0.011-0.022 0.019-0.047 0.025-0.075v0.075z" fill="url(#az)"/>
	<linearGradient id="ba" x1="237.91" x2="236.38" y1="63.169" y2="73.694" gradientUnits="userSpaceOnUse">
		<stop stop-color="#464617" offset="0"/>
		<stop stop-color="#74732E" offset=".502"/>
		<stop stop-color="#474719" offset="1"/>
	</linearGradient>
	<path d="m268.7 68.675l28.175 4.25c1.987 2.503 2.737 4.595 2.25 6.275-0.563 1.67-2.389 2.954-5.475 3.85l-26.675-3.6c2.872-3.178 3.53-6.578 1.975-10.2-0.077-0.194-0.16-0.386-0.25-0.575zm-94.9-1.8c1.802-0.917 2.918-2.442 3.35-4.575 0.525-2.813 0.441-4.888-0.25-6.225-0.34-0.678-0.74-1.236-1.2-1.675l-0.025-0.025 39.075 6c0.05 0.052 0.101 0.11 0.15 0.175v-0.025c2.743 3.964 2.06 7.772-2.05 11.425l-0.025 0.025c-0.069 0.048-0.136 0.098-0.2 0.15l-38.825-5.25z" fill="url(#ba)"/>
	<linearGradient id="bd" x1="245.74" x2="244.21" y1="64.304" y2="74.829" gradientUnits="userSpaceOnUse">
		<stop stop-color="#900" offset="0"/>
		<stop stop-color="#F88787" offset=".502"/>
		<stop stop-color="#990202" offset="1"/>
	</linearGradient>
	<path d="m238.45 74.2c6e-3 -0.025 0.015-0.05 0.025-0.075 1.189-3.064 1.781-5.855 1.775-8.375 1e-3 -0.686-0.032-1.302-0.1-1.85v-0.025c-0.161-1.246-0.486-2.229-0.975-2.95 4.646 0.886 7.887 1.519 9.725 1.9 0.856 0.795 1.423 1.445 1.7 1.95l0.025 0.025c0.322 0.555 0.547 0.963 0.675 1.225v-0.025c0.461 0.989 0.694 1.839 0.7 2.55-0.033 3.003-0.725 5.861-2.075 8.575-0.157 0.236-0.332 0.461-0.525 0.675-0.876 1.013-2.084 1.788-3.625 2.325-0.99-0.111-1.932-0.219-2.825-0.325l2.9-5.6h-7.4z" fill="url(#bd)"/>
	<path d="m173.8 54.375c0.197 0.073 0.389 0.165 0.575 0.275 0.796 0.673 1.338 1.298 1.625 1.875 0.575 1.196 0.625 3.055 0.15 5.575-0.486 2.397-1.995 3.889-4.525 4.475l-1.025-0.15c-1.423-1.418-2.09-3.584-2-6.5v-0.025c0.069-2.566 1.47-4.308 4.2-5.225h0.025c0.305-0.115 0.63-0.215 0.975-0.3z" fill="#646324"/>
	<path d="m175.7 54.4c0.459 0.439 0.859 0.998 1.2 1.675 0.691 1.337 0.775 3.412 0.25 6.225-0.432 2.133-1.548 3.658-3.35 4.575-0.847-0.122-1.563-0.214-2.15-0.275h0.075l-0.1-0.025c2.53-0.586 4.039-2.078 4.525-4.475 0.475-2.521 0.425-4.379-0.15-5.575-0.287-0.577-0.829-1.202-1.625-1.875-0.187-0.11-0.378-0.202-0.575-0.275 0.062-0.02 0.12-0.037 0.175-0.05l0.025 0.025 1.7 0.05z" fill="#73722D"/>
	<path d="m234.95 74.2c1.491-3.216 2.008-6.783 1.55-10.7l-0.05-0.375-3.075-0.65c0.218-0.321 0.534-0.671 0.95-1.05l0.025-0.025c0.444-0.446 0.995-0.83 1.65-1.15l-0.7-0.225 1.45 0.425c1.333 0.322 2.132 1.505 2.4 3.55 0.065 0.519 0.099 1.102 0.1 1.75-6e-3 2.414-0.581 5.089-1.725 8.025-0.055 0.145-0.113 0.287-0.175 0.425h-2.4zm-3.9 2.2c-0.123-0.353-0.239-0.753-0.35-1.2l0.925 0.125-0.575 1.075z" fill="#DF4A4A"/>
	<path d="m158.5 223.82c0.146 0.8 0.179 1.649 0.1 2.55v0.025c-0.23 2.105-1.063 3.872-2.5 5.3v0.024c-1.012 0.97-2.104 1.586-3.275 1.851h-0.025c-0.368 0.076-0.718 0.135-1.05 0.175l-0.975-0.05c-1.792-0.235-3.225-1.127-4.3-2.675-1.02-1.452-1.478-3.103-1.375-4.95 0.674 3.678 1.782 5.902 3.325 6.675 1.772 1.155 4.014 0.355 6.725-2.4l0.125-0.1 3.225-6.425zm230.52 31.625h0.05c1.229 0.052 2.305 0.452 3.225 1.2l0.025 0.024c0.509 0.395 0.959 0.886 1.35 1.476v-0.025c1.044 1.495 1.511 3.245 1.4 5.25-7e-3 0.114-0.015 0.231-0.025 0.35v0.025c-0.026 0.244-0.06 0.485-0.1 0.725-0.167 0.888-0.45 1.713-0.851 2.476-0.395 0.766-0.911 1.465-1.55 2.1v0.025c-1.012 0.969-2.104 1.586-3.274 1.85h-0.025c-0.368 0.077-0.718 0.135-1.05 0.175l-0.7-0.05 0.25 0.025-0.525-0.025c-0.232-0.03-0.458-0.072-0.675-0.125-1.402-0.334-2.561-1.117-3.475-2.35-0.05-0.062-0.1-0.128-0.15-0.2-1.145-1.629-1.586-3.504-1.325-5.625v-0.025c0.016-0.16 0.032-0.318 0.051-0.475 0.104-0.706 0.279-1.372 0.524-2 0.085-0.211 0.177-0.42 0.275-0.625 0.352-0.691 0.802-1.333 1.35-1.925 0.081-0.082 0.165-0.166 0.25-0.25 0.184-0.185 0.384-0.352 0.601-0.5 0.018-7e-3 0.034-0.016 0.05-0.025 0.01-0.015 0.019-0.031 0.024-0.05h0.025c1.25-1.034 2.642-1.51 4.175-1.425 0.035-3e-3 0.069-3e-3 0.1-1e-3zm-3.075 3.025l-0.101 0.051c-0.145 0.096-0.278 0.204-0.399 0.324-0.278 0.282-0.528 0.582-0.75 0.9-0.558 0.818-0.907 1.752-1.05 2.8-0.022 0.134-0.039 0.267-0.051 0.4v0.024c-0.201 1.603 0.124 3.019 0.976 4.25 0.533 0.774 1.2 1.308 2 1.601 0.281 0.106 0.581 0.182 0.899 0.225l0.575 0.05h0.025c0.242-0.031 0.492-0.073 0.75-0.125 0.828-0.202 1.604-0.652 2.325-1.35v0.025c1.091-1.101 1.724-2.459 1.899-4.075v-0.025c0.141-1.639-0.2-3.063-1.024-4.274v-0.025c-0.269-0.4-0.577-0.733-0.926-1l-0.024-0.025c-0.597-0.492-1.296-0.75-2.101-0.774h-0.05c-1.096-0.074-2.088 0.268-2.973 1.023zm-127.95 4.975c-0.034 0.717-0.067 1.417-0.1 2.1-4.196-1.242-7.721-3.917-10.575-8.024-3.744-5.358-5.236-11.633-4.475-18.825 0.546-5.403 2.238-10.128 5.075-14.175 0.439-0.626 0.905-1.234 1.4-1.825 0.571-0.689 1.179-1.356 1.825-2 0.666-0.671 1.349-1.271 2.05-1.8l-0.05 0.024c0.659-0.546 1.326-1.046 2-1.5 0.579-0.383 1.162-0.732 1.75-1.05 2.851-1.551 5.884-2.342 9.1-2.375 0.332 4e-3 0.665 0.012 1 0.025 0.208 2e-3 0.416 0.011 0.625 0.024 1.222 0.089 2.396 0.28 3.525 0.575 0.338 0.079 0.671 0.171 1 0.275 0.441 0.136 0.875 0.285 1.3 0.449 0.338 0.134 0.671 0.275 1 0.426 1.27 0.596 2.47 1.337 3.6 2.225l0.025 0.025c0.875 0.668 1.708 1.435 2.5 2.3 0.442 0.479 0.876 0.988 1.3 1.524 0.234 0.317 0.468 0.643 0.7 0.976 1.203 1.722 2.17 3.538 2.899 5.45 0.278 0.717 0.52 1.45 0.726 2.199 0.991 3.449 1.274 7.19 0.85 11.226-0.126 1.186-0.31 2.336-0.55 3.45-0.141 0.67-0.299 1.328-0.475 1.975-0.557 1.987-1.299 3.862-2.226 5.625-0.324 0.633-0.674 1.249-1.05 1.85-1.12 1.791-2.454 3.458-4 5-3.31 3.316-6.918 5.408-10.825 6.275-0.601 0.138-1.209 0.245-1.825 0.325l0.25-2.05c0.377-0.065 0.752-0.14 1.125-0.226 3.56-0.8 6.851-2.708 9.875-5.725 1.226-1.229 2.309-2.546 3.25-3.95 0.399-0.595 0.774-1.203 1.125-1.825 0.968-1.753 1.734-3.628 2.301-5.625 0.187-0.641 0.353-1.29 0.5-1.95 0.229-1.085 0.404-2.202 0.524-3.35 0.343-3.256 0.193-6.306-0.45-9.15-0.174-0.782-0.382-1.549-0.625-2.3-0.715-2.152-1.731-4.178-3.05-6.075-0.134-0.193-0.268-0.385-0.399-0.574-0.411-0.553-0.836-1.069-1.275-1.551-0.76-0.853-1.56-1.603-2.4-2.25h-0.024v-0.024c-0.751-0.591-1.543-1.107-2.375-1.55-0.324-0.18-0.657-0.346-1-0.5-0.429-0.197-0.87-0.372-1.325-0.525-0.325-0.121-0.658-0.229-1-0.325-1.157-0.328-2.374-0.537-3.65-0.625-0.202-0.013-0.402-0.021-0.6-0.024-0.337-0.012-0.67-0.012-1 0-2.881 0.053-5.597 0.786-8.15 2.199-0.583 0.321-1.158 0.68-1.725 1.075-0.523 0.359-1.04 0.751-1.55 1.175l-0.05 0.025c-0.632 0.471-1.249 1.004-1.85 1.6-0.852 0.854-1.635 1.746-2.35 2.676-0.481 0.634-0.931 1.283-1.35 1.949-2.21 3.542-3.543 7.601-4 12.176-0.707 6.674 0.668 12.499 4.125 17.475 2.459 3.55 5.467 5.908 9.024 7.075z" fill="#9594A7"/>
	<path d="m192.32 137.68c-0.24-0.124-0.482-0.249-0.725-0.375-0.769-0.282-1.535-0.557-2.3-0.825-24.513-8.342-47.93-6.033-70.25 6.925l0.125 6.75c1.609-0.907 3.226-1.748 4.85-2.525 7.179-3.463 14.487-5.705 21.925-6.725 11.683-1.603 23.683-0.186 36 4.25 0.153 0.046 0.303 0.097 0.45 0.15l0.1 0.05c0.814 0.421 1.614 0.854 2.4 1.3l-0.925 1.775c-0.055-0.033-0.113-0.066-0.175-0.1-0.692-0.383-1.393-0.758-2.1-1.125-0.297-0.109-0.597-0.217-0.9-0.325-19.401-6.875-38.001-6.05-55.8 2.475-2.11 1.005-4.21 2.122-6.3 3.35l-1.475 0.825-0.025-1.275-0.15-9.975 0.5-0.275c23.302-13.732 47.777-16.091 73.425-7.075 0.442 0.155 0.883 0.313 1.325 0.475l0.1 0.05c0.574 0.297 1.141 0.597 1.7 0.9-0.323 0.232-0.64 0.466-0.95 0.7-0.28 0.209-0.555 0.418-0.825 0.625zm39.025 71.5c-2.004 0.045-4.295-0.029-6.875-0.225l-0.825-0.05-0.1-0.875c-1.821-22.792-11.913-40.717-30.275-53.775l0.9-1.825c18.812 13.272 29.246 31.464 31.3 54.575 2.097 0.143 3.98 0.201 5.65 0.175 0.705-0.021 1.372-0.055 2-0.1 1.818-0.127 3.318-0.385 4.5-0.775 0.862-0.305 1.612-0.58 2.25-0.825l0.8 1.875c-0.688 0.245-1.488 0.528-2.4 0.851-1.286 0.442-2.928 0.734-4.925 0.875-0.632 0.046-1.298 0.079-2 0.099zm-23.225-64.075c3.457 2.513 6.666 5.163 9.625 7.95l2.05 4.825c-3.725-3.888-7.9-7.529-12.525-10.925l0.175-0.375c0.229-0.497 0.453-0.989 0.675-1.475zm146.95 53c-5.565 4.149-10.498 9.166-14.8 15.05-2.239 3.04-4.306 6.315-6.2 9.824l-0.851 1.5-0.35-0.55-1.525-2.55-1.175-1.925-2.774-4.625 0.274-0.5c6.011-11.148 13.461-20.324 22.351-27.525l0.85 1.9c-8.377 6.874-15.435 15.565-21.175 26.075l3.475 5.725c5.633-9.993 12.649-18.085 21.05-24.275l0.85 1.876zm103.25 9.875c-0.56 0.286-1.143 0.603-1.75 0.95-1.914 1.096-4.063 2.495-6.45 4.2l-0.8 0.55-0.601-0.8c-10.467-15.353-25.067-24.395-43.8-27.125-2.925-0.471-5.933-0.738-9.024-0.8h-0.101c-3.514-0.126-7.155-0.06-10.925 0.2-6.265 1.267-12.089 3.142-17.475 5.625-0.473 0.209-0.938 0.426-1.4 0.65-0.084 0.042-0.167 0.083-0.25 0.125l-0.775-1.825c0.063-0.033 0.13-0.066 0.2-0.1 0.479-0.242 0.962-0.476 1.45-0.7 5.539-2.541 11.53-4.458 17.975-5.75l0.075-0.025h0.05c29.054-2.004 50.745 7.246 65.075 27.75 2.055-1.438 3.938-2.647 5.65-3.625 0.605-0.354 1.188-0.679 1.75-0.976 0.756-0.394 1.473-0.734 2.149-1.024 2.255-0.9 3.972-1.209 5.15-0.926-18.94-24.148-44.315-35.132-76.125-32.95-9.234 1.864-17.643 4.873-25.225 9.025-0.596 0.316-1.188 0.642-1.775 0.975l-0.8-1.85c0.602-0.35 1.21-0.691 1.825-1.025 0.105-0.057 0.214-0.116 0.324-0.175l0.525 0.65 8.35-3.5-0.649-1c0.077-0.021 0.152-0.046 0.225-0.075 5.303-2.134 10.944-3.801 16.925-5l0.075-0.025h0.05c33.941-2.319 60.466 9.623 79.575 35.825 1.023 0.879 1.39 3.212 1.101 7l-0.075 1.226-1.175-0.325c-0.479-0.031-2.62-2.182-6.426-6.45-0.88 0.325-1.847 0.758-2.898 1.3zm8.675 2.075c0.354-2.318 0.038-3.568-0.95-3.75-0.542-0.188-1.551-0.297-3.024-0.325 0.225 0.198 0.532 0.499 0.925 0.9 1.176 1.209 2.193 2.268 3.049 3.175z" fill="#463717"/>
	<radialGradient id="bb" cx="397.65" cy="247.7" r="79" gradientUnits="userSpaceOnUse">
		<stop stop-color="#CBA439" offset=".698"/>
		<stop stop-color="#fc0" offset=".8667"/>
		<stop stop-color="#C19C46" offset="1"/>
	</radialGradient>
	<path d="m354.22 196.22c-8.4 6.19-15.417 14.282-21.05 24.275l-3.475-5.725c5.74-10.51 12.798-19.202 21.175-26.075l3.35 7.525zm7.15-14.825c0.588-0.333 1.18-0.659 1.775-0.975 7.582-4.152 15.99-7.161 25.225-9.025 31.81-2.182 57.185 8.801 76.125 32.95-1.179-0.283-2.896 0.025-5.15 0.926-0.677 0.29-1.394 0.631-2.149 1.024-0.562 0.297-1.145 0.622-1.75 0.976-1.713 0.978-3.596 2.187-5.65 3.625-14.33-20.505-36.021-29.755-65.075-27.75h-0.05l-0.075 0.025c-6.444 1.292-12.436 3.209-17.975 5.75-0.488 0.225-0.972 0.458-1.45 0.7-0.07 0.034-0.137 0.067-0.2 0.1l-3.601-8.326z" fill="url(#bb)"/>
	<radialGradient id="bc" cx="431.05" cy="176.6" r="109.4" gradientUnits="userSpaceOnUse">
		<stop stop-color="#fc0" offset="0"/>
		<stop stop-color="#C19C46" offset="1"/>
	</radialGradient>
	<path d="m467 210.05c-0.856-0.907-1.873-1.966-3.05-3.175-0.393-0.401-0.7-0.702-0.925-0.9 1.474 0.028 2.482 0.137 3.024 0.325 0.989 0.181 1.305 1.431 0.951 3.75z" fill="url(#bc)"/>
	<radialGradient id="ac" cx="156.25" cy="214.15" r="86.438" gradientUnits="userSpaceOnUse">
		<stop stop-color="#CBA439" offset=".698"/>
		<stop stop-color="#fc0" offset=".8667"/>
		<stop stop-color="#C19C46" offset="1"/>
	</radialGradient>
	<path d="m184.9 146.65c-0.786-0.445-1.586-0.878-2.4-1.3l-0.1-0.05c-0.146-0.053-0.296-0.104-0.45-0.15-12.317-4.436-24.317-5.853-36-4.25-7.438 1.02-14.746 3.262-21.925 6.725-1.624 0.777-3.241 1.618-4.85 2.525l-0.125-6.75c22.32-12.958 45.737-15.267 70.25-6.925 0.765 0.268 1.532 0.543 2.3 0.825 0.243 0.126 0.485 0.251 0.725 0.375-2.736 2.159-4.811 4.375-6.225 6.65l-0.025 0.025-1.175 2.3zm54.975 58.825c-0.638 0.245-1.388 0.521-2.25 0.825-1.182 0.391-2.682 0.648-4.5 0.775-0.628 0.045-1.295 0.078-2 0.1-1.669 0.026-3.553-0.032-5.65-0.175-2.055-23.111-12.488-41.303-31.3-54.575l0.925-1.825-0.025 0.025c1.271-2.333 3.271-4.667 6-7l5.9 4.025 0.3-0.7c4.625 3.396 8.8 7.037 12.525 10.925l20.075 47.6z" fill="url(#ac)"/>
		<radialGradient id="ad" cx="364.19" cy="95.75" r="62.112" gradientTransform="matrix(1 0 0 .2776 0 69.172)" gradientUnits="userSpaceOnUse">
		<stop stop-color="#764E48" offset="0"/>
		<stop stop-color="#060402" offset="1"/>
	</radialGradient>
	<path d="m358.22 93.15c10.61-1.317 20.743-0.383 30.4 2.8 9.146 3.024 13.653 6.516 13.525 10.475-0.29 4.254-1.165 7.663-2.625 10.225h0.024c-1.49 2.335-5.207 3.502-11.149 3.5-2.462-0.014-8.095-1.156-16.9-3.425-1.733-0.467-3.6-0.967-5.6-1.5-1.158-0.3-2.283-0.6-3.375-0.9h-0.125c-10.507-2.693-21.391-4.327-32.65-4.9-3.357-2.371-4.315-4.538-2.875-6.5 1.97-2.36 6.928-4.56 14.875-6.6l0.7-0.65c0.311-0.423 5.57-1.265 15.775-2.525z" fill="url(#ad)"/>
	<path d="m349.6 133.3l-0.199 0.9 0.05-1 0.149 0.1zm8.725 2.375c-1.462-0.592-2.645-0.992-3.55-1.2-1.362-0.335-2.779-0.677-4.25-1.025l12.125-17c0.897 0.244 1.814 0.486 2.75 0.725 1.467 0.391 2.858 0.766 4.175 1.125l-11.975 16.55 0.801 0.6-0.076 0.225zm-26.95 137.12l-10.125-0.375-2.15-0.075-1.975-0.074-51.525-1.926 0.025-0.149c4.185-0.417 8.093-1.984 11.725-4.7l39.801 2.375 1.975 0.125 2.1 0.125 10.075 0.6 4.8 0.275 5 0.3 33.075 1.976 8.675 0.524c0.512-0.102 1.012-0.21 1.5-0.325 0.799 0.489 1.69 0.798 2.676 0.926h0.725v-0.025c1.83-0.097 3.33-0.589 4.5-1.475h0.025c0.316-0.249 0.633-0.516 0.949-0.801l0.025-0.024v-0.025c1.671-1.657 2.638-3.74 2.9-6.25 0.255-2.447-0.237-4.598-1.476-6.45l-0.05-0.074-0.1-0.101c-0.447-0.658-0.947-1.208-1.5-1.649-1.094-0.86-2.36-1.336-3.801-1.426h-0.024c-0.642-0.051-1.267-0.018-1.875 0.101-0.104-0.083-0.212-0.167-0.325-0.25l-5.7-1.875-2.6-0.851-1.375-0.449-35.3-11.65-4.575-1.5-9.7-3.2-2.15-0.7-1.875-0.625-31.05-10.225-2-0.675-5.274-1.75c-0.101-0.134-0.2-0.267-0.301-0.4-0.249-0.351-0.499-0.692-0.75-1.024-0.421-0.54-0.854-1.058-1.3-1.551-0.981-1.097-2.015-2.072-3.1-2.925l4.35 1.5 2.025 0.7 6.975 2.375 2 0.675 29.675 10.15 1.875 0.649 2.226 0.75 9.7 3.325 4.574 1.575 28 9.575 5.825 2 2.625 0.899 9.775 3.325 2.075 0.7c0.229 0.185 0.454 0.368 0.675 0.55 12.401 10.273 10.676 17.456-5.175 21.55h-0.176l-2.75-0.1-14.924-0.551-28.1-1.05-5-0.176-4.825-0.174z" fill="#666"/>
	<linearGradient id="ae" x1="336.71" x2="348.43" y1="141.43" y2="150.11" gradientUnits="userSpaceOnUse">
		<stop stop-color="#C93C3C" offset="0"/>
		<stop stop-color="#FC2C03" offset=".3529"/>
		<stop stop-color="#FE8E78" offset=".5176"/>
		<stop stop-color="#FF3800" offset=".6471"/>
		<stop stop-color="#C14646" offset="1"/>
	</linearGradient>
	<path d="m341.95 139.95l0.024-0.025c0.04-0.045 0.073-0.095 0.101-0.15l4.3-5.25c0.957 0.213 1.891 0.43 2.8 0.65 1.792 0.434 3.5 0.85 5.125 1.25h0.025c0.828 0.192 1.911 0.559 3.25 1.1 1.097 0.446 2.372 1.021 3.825 1.725l-8.2 9.5h-5.425l-0.226 0.125c-3.956 2.247-5.473 5.73-4.55 10.45l-7.05-1.65c-0.061-0.014-0.119-0.022-0.175-0.025l-6.95-1.6 13.075-16.025 0.051-0.075z" fill="url(#ae)"/>
	<path d="m349.4 133.18l0.05 0.025-0.05 1 0.199-0.9 0.025-0.075c0.299 0.072 0.6 0.146 0.9 0.225 1.471 0.348 2.888 0.689 4.25 1.025 0.905 0.208 2.088 0.607 3.55 1.2 0.269 0.108 0.543 0.225 0.825 0.35 0.017 7e-3 0.033 0.016 0.05 0.025 1.236 0.518 2.653 1.168 4.25 1.95l1.149 0.575-9.699 11.25 13.649 21 2.4 3.675 0.649 1-8.35 3.5-0.525-0.65-0.75-0.9-3.125-3.825 1.65 5.8-0.025-0.125 0.101 0.25 0.8 1.85 3.6 8.325 0.775 1.825 0.075 0.15 4.3 9.975 2 4.675 0.975 2.25 15.226 35.426 4 9.274c-0.221-0.182-0.445-0.365-0.675-0.55l-2.075-0.7-30.95-71.95-0.025-0.075v-0.05l-3.75-13.15 0.726-0.375 8.274 10.125 4.676-1.95 0.074-0.025-15.5-23.85h-4.75c-3.271 2.019-4.305 5.169-3.1 9.45l0.025 0.05c0.021 0.062 0.037 0.12 0.05 0.175 0.01 0.041 0.019 0.083 0.024 0.125v0.025l5.2 22.475 29.25 65.675-2.625-0.899-14.024-31.55-1.4-3.176-2.1-4.675-4.449-10.025-0.125-0.3-0.851-1.875-3.35-7.525-0.85-1.9-1.351-3-0.024-0.075-4.825-20.925-48.525 57-2-0.675 49.25-57.875-6.5-1.5-49.725 57-2.025-0.7 49.55-56.8-6.899-1.6-0.075-0.025h-0.05c-0.022-5e-3 -0.047-0.014-0.075-0.025l-99.4-18.75h-5.15l33.175 74.125c-0.582 0.331-1.157 0.689-1.725 1.075l-34.4-76.725-6.475-1.225 0.525 1.2c0.028 0.05 0.053 0.1 0.075 0.15l34.475 81.75c-0.506 0.56-0.99 1.135-1.45 1.725l-5.725-13.575-0.8-1.875-20.075-47.6-2.05-4.825-5.975-14.2h-0.775c-0.921 2.006-1.879 4.089-2.875 6.25-0.222 0.486-0.446 0.978-0.675 1.475l-0.175 0.375-0.3 0.7-5.9-4.025c-2.729 2.333-4.729 4.667-6 7l0.025-0.025-0.925 1.825-0.9 1.825-2.15 4.275-4.55 9.125-1.925 3.85c2.955 1.979 5.138 4.08 6.55 6.3l0.3 0.5-0.275 0.5v0.025c-6.442 12.108-13.843 25.542-22.2 40.3l-0.025 0.025-4.45 1.449-2.825 0.9-0.5 0.15-0.025-0.075c-0.188-0.618-0.446-1.152-0.775-1.601l-1.125 2.25-0.8 1.601-3.225 6.425-0.125 0.1c-2.711 2.756-4.953 3.556-6.725 2.4-1.543-0.772-2.651-2.997-3.325-6.675-0.074-0.358-0.141-0.733-0.2-1.125l-0.05-0.325 0.875-1.7c0.194-0.501 0.436-0.976 0.725-1.425l1.8-3.5 12.9-25.075 5.3-10.35 8.075-15.75 2.45-4.75 2.725-5.325 0.45-0.875 1.6-3.1 2.225-4.35 0.925-1.775 1.175-2.3 0.025-0.025c1.414-2.275 3.489-4.491 6.225-6.65 0.27-0.207 0.545-0.416 0.825-0.625 0.311-0.234 0.627-0.467 0.95-0.7 1.335-0.951 2.802-1.893 4.4-2.825 0.718-0.408 1.459-0.816 2.225-1.225l29.7-54.75 0.625-1.15 0.575-1.075 0.525-0.925 0.1-0.2h13.6l-2.9 5.6-0.5 0.95-10.275 19.825-4.075 7.85-4.05 7.8 116.75 22 4.375-5.35 0.05-0.1 0.025-0.025c0.022-0.027 0.048-0.052 0.075-0.075l0.024-0.025 0.601-0.75 0.725 0.625c0.934 0.218 1.843 0.434 2.725 0.651zm-7.45 6.775l-0.05 0.075-13.075 16.025 6.95 1.6c0.056 3e-3 0.114 0.011 0.175 0.025l7.05 1.65c-0.923-4.72 0.594-8.203 4.55-10.45l0.226-0.125h5.425l8.2-9.5c-1.453-0.704-2.729-1.279-3.825-1.725-1.339-0.541-2.422-0.908-3.25-1.1h-0.026c-1.625-0.4-3.333-0.816-5.125-1.25-0.909-0.22-1.843-0.437-2.8-0.65l-4.3 5.25c-0.027 0.055-0.061 0.104-0.101 0.15l-0.024 0.025zm-15.325 15.625l12.75-15.6-116.55-21.975c-6.404 4.995-9.754 10.353-10.05 16.075l14.725 2.8c0.027-4e-3 0.052-4e-3 0.075 0h0.025c0.027 5e-3 0.052 0.014 0.075 0.025l98.95 18.675zm80.425 101.65v0.025l-5.95 2-0.024-0.025-2.776-5.525 0.05-0.275 2.45-12.675 0.1 0.25 6.15 16.225zm-30.125 12.4l-35.675-5.7-4.95-0.8-4.75-0.75-9.95-1.575-2.024-0.325-1.976-0.324-31.35-5c0.332-0.608 0.648-1.225 0.95-1.851l94.25 15.025c0.172 0.327 0.363 0.644 0.575 0.95 0.361 0.514 0.753 0.964 1.175 1.35l-6.275-1zm13.475-45.375l-0.025-0.05-6.425-19.6c0.559-0.331 1.191-0.531 1.899-0.6l5 15.325-0.449 4.925zm-11.85-17.475l10.625 30.824-0.3 3.351-0.175-0.476-11.875-32.85c0.432-0.209 1.007-0.492 1.725-0.849zm2.75 45.3l1.976 4.45c-0.544 0.551-1.011 1.15-1.4 1.8l-2.675-6-0.5-1.101 2.599 0.851zm-38.85 1.925l28.2 4.45 10.375 1.625c-0.22 0.628-0.387 1.295-0.5 2l-91.301-14.45c0.164-0.646 0.313-1.305 0.45-1.975l29.275 4.625 1.975 0.3 2.025 0.325 9.95 1.574 4.699 0.75 4.852 0.776zm59.225 4.1l3.025-1.375-3.3-8.925-1.551 6.4 1.826 3.9zm-181.9-156.7l-16.8 30.925c2.601 0.475 5.201 0.942 7.8 1.4 0.348-6.229 4.006-12.038 10.975-17.425l6.3-12.15 14.5-27.95h-9.1l-13.675 25.2zm-10.5 36.4c-0.494 0.301-0.978 0.602-1.45 0.9-1.645 1.031-3.145 2.056-4.5 3.075-0.225 0.171-0.441 0.337-0.65 0.5l3.475 2.375c0.111-0.243 0.22-0.484 0.325-0.725 0.972-2.115 1.905-4.156 2.8-6.125zm-2.5-0.8c0.804-0.507 1.646-1.015 2.525-1.525-2.557-0.453-5.115-0.911-7.675-1.375-2.051 1.089-3.901 2.197-5.55 3.325-0.604 0.405-1.179 0.813-1.725 1.225-0.029 0.021-0.054 0.046-0.075 0.075-2.851 2.128-4.993 4.32-6.425 6.575l-39.525 77c-0.352 0.49-0.627 1.024-0.825 1.601l-0.55 1.074c0.052 0.336 0.111 0.661 0.175 0.976 0.512 2.717 1.271 4.408 2.275 5.075 1.042 0.454 2.443-0.188 4.2-1.926l5.625-11.199 0.025-0.025v-0.05l23.175-46.375 0.025-0.025v-0.05l10.85-21.676 0.025-0.025c1.37-2.57 3.553-5.137 6.55-7.7 0.148-0.124 0.298-0.249 0.45-0.375l0.025-0.025c0.378-0.314 0.77-0.631 1.175-0.95 1.557-1.206 3.307-2.415 5.25-3.625zm-17.6 41.425c-1.249-1.789-3.057-3.498-5.425-5.125l-22.35 44.726c0.55 0.547 1 1.214 1.35 2l4.35-1.575c8.267-14.586 15.626-27.927 22.075-40.026zm98.85 46.875l2.649-3.1 2 0.675-3.85 4.525c-0.242-0.712-0.509-1.413-0.799-2.1z" fill="#600"/>
	<linearGradient id="af" x1="343.75" x2="397.05" y1="203.64" y2="203.64" gradientUnits="userSpaceOnUse">
		<stop stop-color="#C93C3C" offset="0"/>
		<stop stop-color="#FC2C03" offset=".3529"/>
		<stop stop-color="#FE8E78" offset=".5176"/>
		<stop stop-color="#FF3800" offset=".6471"/>
		<stop stop-color="#C14646" offset="1"/>
	</linearGradient>
	<path d="m389.58 252.05l-9.775-3.325-29.25-65.675-5.2-22.475v-0.025c-6e-3 -0.042-0.015-0.084-0.024-0.125-0.013-0.055-0.029-0.113-0.05-0.175l-0.025-0.05c-1.205-4.281-0.172-7.432 3.1-9.45h4.75l15.5 23.85-0.074 0.025-4.676 1.95-8.274-10.125-0.726 0.375 3.75 13.15v0.05l0.025 0.075 30.949 71.95zm-2.25 2.15c-1.164 0.229-2.256 0.779-3.275 1.649l0.075-0.074c-0.278 0.205-0.536 0.43-0.775 0.675-0.024 0.024-0.05 0.05-0.074 0.075l-1.976-4.45 5.7 1.875c0.113 0.083 0.222 0.167 0.325 0.25z" fill="url(#af)"/>
	<linearGradient id="ag" x1="308.95" x2="315.1" y1="187.74" y2="193.11" gradientUnits="userSpaceOnUse">
		<stop stop-color="#C93C3C" offset="0"/>
		<stop stop-color="#FC2C03" offset=".3529"/>
		<stop stop-color="#FE8E78" offset=".5176"/>
		<stop stop-color="#FF3800" offset=".6471"/>
		<stop stop-color="#C14646" offset="1"/>
	</linearGradient>
	<path d="m293.3 219.12l-6.975-2.375 49.725-57 6.5 1.5-49.25 57.875zm-2.625 3.075l-2.649 3.1c-0.723-1.684-1.598-3.301-2.625-4.85l5.274 1.75z" fill="url(#ag)"/>
	<linearGradient id="ah" x1="278.19" x2="274.46" y1="125.27" y2="145.3" gradientUnits="userSpaceOnUse">
		<stop stop-color="#C93C3C" offset="0"/>
		<stop stop-color="#FC2C03" offset=".3529"/>
		<stop stop-color="#FE8E78" offset=".5176"/>
		<stop stop-color="#FF3800" offset=".6471"/>
		<stop stop-color="#C14646" offset="1"/>
	</linearGradient>
	<path d="m326.62 155.58l-98.95-18.675c-0.023-0.011-0.048-0.02-0.075-0.025h-0.025c-0.023-4e-3 -0.048-4e-3 -0.075 0l-14.725-2.8c0.296-5.723 3.646-11.081 10.05-16.075l116.55 21.975-12.75 15.6z" fill="url(#ah)"/>
	<linearGradient id="ai" x1="377.5" x2="390.7" y1="221.1" y2="221.1" gradientUnits="userSpaceOnUse">
		<stop stop-color="#C93C3C" offset="0"/>
		<stop stop-color="#FC2C03" offset=".3529"/>
		<stop stop-color="#FE8E78" offset=".5176"/>
		<stop stop-color="#FF3800" offset=".6471"/>
		<stop stop-color="#C14646" offset="1"/>
	</linearGradient>
	<path d="m389.18 237.6l-10.625-30.824v-0.025c0.047-9e-3 0.188-0.067 0.425-0.175 0.245-0.103 0.736-0.345 1.476-0.726 0.733-0.381 1.899-0.798 3.5-1.25l6.425 19.601 0.025 0.05-1.226 13.349z" fill="url(#ai)"/>
	<linearGradient id="aj" x1="398.78" x2="405.93" y1="252.95" y2="252.95" gradientUnits="userSpaceOnUse">
		<stop stop-color="#C93C3C" offset="0"/>
		<stop stop-color="#FC2C03" offset=".3529"/>
		<stop stop-color="#FE8E78" offset=".5176"/>
		<stop stop-color="#FF3800" offset=".6471"/>
		<stop stop-color="#C14646" offset="1"/>
	</linearGradient>
	<polygon points="401.68 258.1 399.85 254.2 401.4 247.8 404.7 256.72" fill="url(#aj)"/>
	<linearGradient id="al" x1="249.64" x2="259.09" y1="223.54" y2="219.29" gradientUnits="userSpaceOnUse">
		<stop stop-color="#C93C3C" offset="0"/>
		<stop stop-color="#FC2C03" offset=".3529"/>
		<stop stop-color="#FE8E78" offset=".5176"/>
		<stop stop-color="#FF3800" offset=".6471"/>
		<stop stop-color="#C14646" offset="1"/>
	</linearGradient>
	<path d="m253.65 214.05c-0.694 0.475-1.377 0.991-2.05 1.55-0.8 0.634-1.567 1.317-2.3 2.051-0.503 0.503-0.986 1.02-1.45 1.55l-34.475-81.75c-0.022-0.05-0.047-0.1-0.075-0.15l-0.525-1.2 6.475 1.225 34.4 76.724zm127.8 54.275l-94.25-15.025c0.825-1.8 1.501-3.691 2.024-5.675l91.301 14.45c-0.028 0.201-0.053 0.409-0.075 0.625-0.217 2.087 0.116 3.962 1 5.625z" fill="url(#al)"/>
	<linearGradient id="am" x1="224.82" x2="235.81" y1="85.322" y2="91.349" gradientUnits="userSpaceOnUse">
		<stop stop-color="#808080" offset="0"/>
		<stop stop-color="#808080" offset=".3529"/>
		<stop stop-color="#bbb" offset=".5176"/>
		<stop stop-color="#808080" offset=".6471"/>
		<stop stop-color="#848484" offset="1"/>
	</linearGradient>
	<path d="m228.05 104.15c-2.057-0.255-4.424-0.989-7.1-2.2-0.42-0.183-0.812-0.366-1.175-0.55l13.675-25.2h9.1l-14.5 27.95z" fill="url(#am)"/>
	<linearGradient id="an" x1="208.8" x2="219.8" y1="114.56" y2="120.58" gradientUnits="userSpaceOnUse">
		<stop stop-color="#C93C3C" offset="0"/>
		<stop stop-color="#FC2C03" offset=".3529"/>
		<stop stop-color="#FE8E78" offset=".5176"/>
		<stop stop-color="#FF3800" offset=".6471"/>
		<stop stop-color="#C14646" offset="1"/>
	</linearGradient>
	<path d="m219.78 101.4c0.363 0.184 0.755 0.368 1.175 0.55 2.676 1.211 5.042 1.944 7.1 2.2l-6.3 12.15c-6.969 5.388-10.627 11.196-10.975 17.425-2.599-0.458-5.199-0.925-7.8-1.4l16.8-30.925z" fill="url(#an)"/>
	<linearGradient id="ao" x1="201" x2="211.4" y1="141.22" y2="141.22" gradientUnits="userSpaceOnUse">
		<stop stop-color="#C93C3C" offset="0"/>
		<stop stop-color="#FC2C03" offset=".3529"/>
		<stop stop-color="#FE8E78" offset=".5176"/>
		<stop stop-color="#FF3800" offset=".6471"/>
		<stop stop-color="#C14646" offset="1"/>
	</linearGradient>
	<path d="m209.28 137.8c-0.895 1.969-1.828 4.01-2.8 6.125-0.105 0.241-0.214 0.482-0.325 0.725l-3.475-2.375c0.209-0.163 0.426-0.329 0.65-0.5 1.355-1.019 2.855-2.043 4.5-3.075 0.472-0.299 0.956-0.599 1.45-0.9z" fill="url(#ao)"/>
	<linearGradient id="ap" x1="145.88" x2="211.72" y1="182.63" y2="182.63" gradientUnits="userSpaceOnUse">
		<stop stop-color="#C93C3C" offset="0"/>
		<stop stop-color="#FC2C03" offset=".3529"/>
		<stop stop-color="#FE8E78" offset=".5176"/>
		<stop stop-color="#FF3800" offset=".6471"/>
		<stop stop-color="#C14646" offset="1"/>
	</linearGradient>
	<path d="m206.78 137c-1.943 1.21-3.693 2.419-5.25 3.625-0.405 0.319-0.797 0.636-1.175 0.95l-0.025 0.025c-0.152 0.126-0.302 0.251-0.45 0.375-2.997 2.563-5.18 5.129-6.55 7.7l-0.025 0.025-10.85 21.675v0.05l-0.025 0.025-23.175 46.375v0.05l-0.025 0.025-5.625 11.2c-1.757 1.738-3.158 2.38-4.2 1.926-1.004-0.667-1.763-2.358-2.275-5.075-0.064-0.314-0.123-0.64-0.175-0.976l0.55-1.074c0.198-0.576 0.473-1.11 0.825-1.601l39.525-77c1.432-2.254 3.574-4.446 6.425-6.575 0.021-0.029 0.046-0.054 0.075-0.075 0.546-0.412 1.121-0.82 1.725-1.225 1.649-1.127 3.499-2.236 5.55-3.325 2.56 0.464 5.118 0.922 7.675 1.375-0.879 0.51-1.721 1.018-2.525 1.525z" fill="url(#ap)"/>
	<linearGradient id="aq" x1="160.15" x2="190.35" y1="196.66" y2="196.66" gradientUnits="userSpaceOnUse">
		<stop stop-color="#C93C3C" offset="0"/>
		<stop stop-color="#FC2C03" offset=".3529"/>
		<stop stop-color="#FE8E78" offset=".5176"/>
		<stop stop-color="#FF3800" offset=".6471"/>
		<stop stop-color="#C14646" offset="1"/>
	</linearGradient>
	<path d="m189.18 178.42c-6.449 12.099-13.808 25.44-22.075 40.025l-4.35 1.575c-0.35-0.786-0.8-1.453-1.35-2l22.35-44.726c2.368 1.628 4.176 3.337 5.425 5.126z" fill="url(#aq)"/>
	<radialGradient id="ar" cx="272.7" cy="254.2" r="55.5" gradientUnits="userSpaceOnUse">
		<stop stop-color="#2E2C3A" offset="0"/>
		<stop stop-color="#9494AF" offset="1"/>
	</radialGradient>
	<path d="m257.7 269.6c-5.142-1.319-9.425-4.437-12.85-9.35-4.333-6.2-6.067-13.45-5.2-21.75 0.704-6.767 2.954-12.625 6.75-17.575 0.46-0.59 0.944-1.165 1.45-1.725 0.463-0.53 0.946-1.047 1.45-1.55 0.733-0.733 1.5-1.417 2.3-2.051 0.672-0.559 1.355-1.075 2.05-1.55 0.568-0.386 1.143-0.744 1.725-1.075 3.384-1.946 7.009-2.938 10.875-2.975 0.334-0.011 0.667-0.011 1 0 0.286 0.015 0.569 0.031 0.85 0.05 1.066 0.071 2.1 0.213 3.1 0.425 0.338 0.065 0.672 0.141 1 0.226 0.419 0.104 0.836 0.22 1.25 0.35 0.334 0.107 0.667 0.225 1 0.351 1.969 0.752 3.803 1.802 5.5 3.149 1.085 0.853 2.118 1.828 3.1 2.925 0.446 0.493 0.879 1.011 1.3 1.551 0.251 0.332 0.501 0.674 0.75 1.024 0.101 0.134 0.2 0.267 0.301 0.4 1.027 1.549 1.902 3.166 2.625 4.85 0.29 0.688 0.557 1.388 0.8 2.101 1.486 4.398 1.961 9.215 1.425 14.449-0.136 1.302-0.327 2.568-0.575 3.801-0.137 0.67-0.286 1.328-0.45 1.975-0.523 1.983-1.199 3.875-2.024 5.675-0.302 0.626-0.618 1.242-0.95 1.851-1.481 2.715-3.349 5.198-5.6 7.449-1.101 1.067-2.2 2.034-3.301 2.9-3.631 2.716-7.54 4.283-11.725 4.7l0.475-4c0.615-0.08 1.224-0.188 1.825-0.325 3.907-0.867 7.516-2.959 10.825-6.275 1.546-1.542 2.88-3.209 4-5 0.376-0.601 0.726-1.217 1.05-1.85 0.927-1.763 1.669-3.638 2.226-5.625 0.176-0.646 0.334-1.305 0.475-1.975 0.24-1.114 0.424-2.265 0.55-3.45 0.425-4.035 0.142-7.776-0.85-11.226-0.206-0.749-0.447-1.482-0.726-2.199-0.729-1.912-1.696-3.729-2.899-5.45-0.232-0.333-0.466-0.658-0.7-0.976-0.424-0.536-0.857-1.045-1.3-1.524-0.792-0.865-1.625-1.632-2.5-2.3l-0.027-0.026c-1.13-0.888-2.33-1.629-3.6-2.225-0.329-0.15-0.662-0.292-1-0.426-0.426-0.164-0.859-0.313-1.3-0.449-0.329-0.104-0.662-0.196-1-0.275-1.128-0.295-2.303-0.486-3.525-0.575-0.209-0.014-0.417-0.022-0.625-0.024-0.335-0.014-0.668-0.021-1-0.025-3.216 0.033-6.249 0.824-9.1 2.375-0.588 0.317-1.171 0.667-1.75 1.05-0.674 0.454-1.341 0.954-2 1.5l0.05-0.024c-0.701 0.529-1.384 1.129-2.05 1.8-0.646 0.644-1.254 1.311-1.825 2-0.495 0.591-0.961 1.199-1.4 1.825-2.837 4.047-4.529 8.771-5.075 14.175-0.761 7.192 0.731 13.467 4.475 18.825 2.854 4.107 6.378 6.782 10.575 8.024-0.074 1.407-0.14 2.757-0.2 4.049z" fill="url(#ar)"/>
	<radialGradient id="as" cx="263.4" cy="231.25" r="40.25" gradientUnits="userSpaceOnUse">
		<stop stop-color="#2E2C3A" offset="0"/>
		<stop stop-color="#9494AF" offset="1"/>
	</radialGradient>
	<path d="m266.35 264.15l2.05-17.375c0.236-0.192 0.469-0.4 0.7-0.625 0.423-0.424 0.798-0.874 1.125-1.351 0.391-0.6 0.707-1.241 0.95-1.925 0.171-0.512 0.305-1.045 0.4-1.6 0.027-0.207 0.053-0.416 0.075-0.625 0.014-0.158 0.022-0.316 0.025-0.476 0.02-0.337 0.02-0.67 0-1-0.05-1.137-0.3-2.188-0.75-3.149-0.189-0.407-0.414-0.8-0.675-1.176-0.4-0.566-0.85-1.05-1.35-1.449-0.895-0.696-1.937-1.097-3.125-1.2h-0.025c-0.334-0.021-0.66-0.013-0.975 0.024-0.257 0.015-0.507 0.048-0.75 0.101-0.635 0.152-1.243 0.411-1.825 0.774-0.273 0.181-0.54 0.381-0.8 0.601-0.233 0.166-0.433 0.35-0.6 0.55-1.5 1.467-2.35 3.3-2.55 5.5-0.202 1.663 7e-3 3.163 0.625 4.5-0.157 4.052-0.398 9.478-0.725 16.275-0.052 1.002-0.102 1.978-0.15 2.925-3.557-1.167-6.565-3.525-9.025-7.075-3.457-4.976-4.832-10.801-4.125-17.475 0.457-4.575 1.79-8.634 4-12.176 0.419-0.666 0.869-1.315 1.35-1.949 0.715-0.93 1.498-1.821 2.35-2.676 0.601-0.596 1.218-1.129 1.85-1.6l0.05-0.025c0.51-0.424 1.027-0.815 1.55-1.175 0.567-0.396 1.143-0.754 1.725-1.075 2.553-1.413 5.269-2.146 8.15-2.199 0.33-0.012 0.663-0.012 1 0 0.198 3e-3 0.398 0.012 0.6 0.024 1.276 0.088 2.493 0.297 3.65 0.625 0.342 0.096 0.675 0.204 1 0.325 0.455 0.153 0.896 0.328 1.325 0.525 0.343 0.154 0.676 0.32 1 0.5 0.832 0.442 1.624 0.959 2.375 1.55v0.024h0.024c0.841 0.647 1.641 1.397 2.4 2.25 0.439 0.481 0.864 0.998 1.275 1.551 0.132 0.189 0.266 0.381 0.399 0.574 1.318 1.897 2.335 3.923 3.05 6.075 0.243 0.751 0.451 1.518 0.625 2.3 0.644 2.845 0.793 5.895 0.45 9.15-0.12 1.147-0.296 2.265-0.524 3.35-0.147 0.66-0.313 1.31-0.5 1.95-0.566 1.997-1.333 3.872-2.301 5.625-0.351 0.622-0.726 1.23-1.125 1.825-0.941 1.404-2.024 2.722-3.25 3.95-3.023 3.017-6.315 4.925-9.875 5.725-0.37 0.089-0.745 0.163-1.123 0.228z" fill="url(#as)"/>
	<path d="m267.12 196.58c-0.042 0.637-0.083 1.304-0.125 2l-6.075-1.05h-0.1l-0.1-0.05c-3.137-1.26-4.878-3.168-5.225-5.725-0.565-2.748 1.71-4.631 6.825-5.65l17.399-5.925 18.601 3.2c0.119-0.015 0.244-0.023 0.375-0.025 0.384-0.067 0.684-0.101 0.899-0.1h0.325l0.275 0.2c0.382 0.272 0.798 0.597 1.25 0.975v0.025h0.024c1.414 1.258 2.205 2.524 2.375 3.8v0.025c0.211 1.222-0.381 2.838-1.774 4.85l-0.025 0.025c-0.68 1.059-7.68 3.643-21 7.75l-0.225 0.075-6.4-1.1v-2.05l6.25 1.1c0.769-0.237 1.519-0.47 2.25-0.7 10.891-3.392 16.725-5.476 17.5-6.25 0.997-1.441 1.472-2.583 1.425-3.425v-0.025c-0.171-0.842-0.737-1.692-1.699-2.55l-0.025-0.025c-0.294-0.25-0.569-0.475-0.825-0.675-0.113 0.01-0.238 0.027-0.375 0.05l-0.075 0.025-0.625 0.025-2.125-0.375-16.199-2.775-15.075 5.15-1.85 0.625-0.05 0.025h-0.075c-3.679 0.722-5.462 1.864-5.35 3.425 0.317 1.826 1.617 3.209 3.9 4.15l5.724 0.975zm-3.1 87.3l6.075 1.35c0.127-0.02 0.244-0.027 0.35-0.024 0.482-0.073 0.833-0.082 1.05-0.025l0.225 0.05 0.175 0.125c0.391 0.288 0.799 0.646 1.225 1.075l0.025 0.025c1.364 1.284 2.114 2.575 2.25 3.875v0.05c0.136 1.229-0.547 2.813-2.05 4.75h-0.025c-0.714 1.072-7.823 3.322-21.325 6.75l-0.225 0.05-19.85-4.375-0.1-0.05c-3.055-1.451-4.697-3.435-4.925-5.95-0.443-2.822 1.973-4.605 7.25-5.35l-0.125 0.05 17.65-5.125 5.35 1.175 0.975 0.226 3.05 0.675 1 0.225 1 0.226 0.975 0.222zm3.75 2.875l-16.075-3.575-15.3 4.45-1.825 0.525-0.05 0.024-0.075 0.025c-3.738 0.524-5.588 1.574-5.55 3.149 0.234 1.786 1.451 3.22 3.65 4.301l19.175 4.225c0.777-0.198 1.536-0.39 2.275-0.575 11.148-2.875 17.073-4.684 17.775-5.425h-0.025c1.076-1.368 1.626-2.469 1.65-3.3-0.129-0.893-0.671-1.793-1.625-2.7l-0.025-0.025c-0.278-0.273-0.545-0.515-0.8-0.725-0.09 0.013-0.198 0.029-0.325 0.05l-0.175 0.025c-0.028 5e-3 -0.062 0.013-0.1 0.024l-0.225 0.051-2.35-0.524z" fill="#483939"/>
	<path d="m281.55 189.85c2.533 1.6 3.733 3.2 3.601 4.8-0.094 1.096-0.835 2.288-2.226 3.575-0.731 0.229-1.481 0.463-2.25 0.7l-6.25-1.1-0.025-5.575v-0.95l-0.2-0.15c-1.504-1.132-2.854-1.382-4.05-0.75-0.436-0.079-0.903-0.012-1.4 0.2h-0.025c-0.364 0.184-0.764 0.458-1.2 0.825l-0.175 0.15v1.65c-0.067 1.008-0.143 2.125-0.225 3.35l-5.725-0.975c-2.283-0.941-3.583-2.324-3.9-4.15-0.112-1.561 1.671-2.703 5.35-3.425h0.075l0.05-0.025 1.85-0.625 16.725 2.475zm-27.55 109.45c-0.739 0.186-1.498 0.377-2.275 0.575l-19.175-4.225c-2.199-1.081-3.416-2.515-3.65-4.301-0.038-1.575 1.812-2.625 5.55-3.149l0.075-0.025 0.05-0.024 1.825-0.525 16.65 3.275c2.434 1.699 3.534 3.35 3.3 4.949-0.139 1.091-0.923 2.242-2.35 3.45z" fill="#68A7C1"/>
	<path d="m296.1 185c-2.72 0.828-7.569 2.445-14.55 4.85l-16.725-2.475 15.075-5.15 16.2 2.775zm-59.7 102.62l15.3-4.45 16.075 3.575c-2.75 0.694-7.659 2.077-14.725 4.15l-16.65-3.275z" fill="#7FB2CB"/>
	<path d="m281.55 189.85c6.98-2.405 11.83-4.022 14.55-4.85l2.125 0.375 0.625-0.025 0.075-0.025c0.137-0.023 0.262-0.041 0.375-0.05 0.256 0.2 0.531 0.425 0.825 0.675l0.025 0.025c0.962 0.858 1.528 1.708 1.699 2.55v0.025c0.047 0.842-0.428 1.984-1.425 3.425-0.775 0.774-6.609 2.858-17.5 6.25 1.391-1.288 2.132-2.479 2.226-3.575 0.133-1.6-1.067-3.2-3.6-4.8zm-28.5 101.05c7.066-2.073 11.975-3.456 14.725-4.15l2.35 0.525 0.225-0.051c0.039-0.012 0.072-0.02 0.1-0.024l0.175-0.025c0.127-0.021 0.235-0.037 0.325-0.05 0.255 0.21 0.521 0.451 0.8 0.725l0.025 0.025c0.954 0.907 1.496 1.808 1.625 2.7-0.024 0.831-0.574 1.932-1.65 3.3h0.025c-0.702 0.741-6.626 2.55-17.775 5.425 1.427-1.208 2.211-2.358 2.35-3.45 0.233-1.6-0.867-3.25-3.3-4.95z" fill="#41829C"/>
	<path d="m268.4 246.78l-2.05 17.375-0.25 2.05-0.475 4-0.025 0.149-1.575 13.525-0.975-0.225 1.575-13.325v-0.05l3.75-31.825c-1.124-0.899-2.19-1.308-3.2-1.226 0.47 0.324 0.937 0.758 1.4 1.301l0.15 0.149-4.675 44.75-1-0.225 4.625-44.2c-0.633-0.696-1.267-1.163-1.9-1.4-0.042-2e-3 -0.083-0.01-0.125-0.024-0.018-5e-3 -0.035-0.013-0.05-0.025-0.191-0.05-0.383-0.066-0.575-0.05-0.07 0.016-0.146 0.016-0.225 0-0.057-0.01-0.115-0.01-0.175 0-0.017 0.011-0.033 0.019-0.05 0.025-0.034 0.012-0.067 0.02-0.1 0.024-0.695 0.13-1.378 0.563-2.05 1.3l-0.025 0.025-0.05 0.025c-0.101 0.081-0.201 0.173-0.3 0.274-0.044 1.667-0.119 3.876-0.225 6.625-0.162 3.86-0.387 8.785-0.675 14.775-0.056 1.085-0.114 2.144-0.175 3.175-0.035 0.698-0.069 1.382-0.1 2.05-0.072 1.402-0.139 2.744-0.2 4.025-0.27 5.198-0.495 9.432-0.675 12.7l-0.975-0.226c0.171-3.274 0.396-7.508 0.675-12.7 0.06-1.292 0.126-2.642 0.2-4.05 0.033-0.683 0.066-1.383 0.1-2.1 0.048-0.947 0.098-1.923 0.15-2.925 0.327-6.798 0.568-12.224 0.725-16.275 0.082-2.143 0.141-3.901 0.175-5.275v-0.171l0.125-0.125c0.191-0.229 0.383-0.422 0.575-0.575l-0.075 0.051c0.842-0.909 1.709-1.442 2.6-1.601 0.222-0.078 0.447-0.095 0.675-0.05h0.05c0.257-0.021 0.515 5e-3 0.775 0.075 1.676-0.81 3.493-0.377 5.45 1.3l0.2 0.15-1.025 8.75zm-2.15-36.775c0.29-4.43 0.54-8.238 0.75-11.425 0.042-0.696 0.083-1.363 0.125-2 0.083-1.225 0.158-2.342 0.225-3.35v-1.65l0.175-0.15c0.436-0.366 0.836-0.641 1.2-0.825h0.025c0.497-0.212 0.964-0.279 1.4-0.2 1.196-0.632 2.546-0.382 4.05 0.75l0.2 0.15v0.95l0.025 5.575v2.05l0.025 11.525c-0.333-0.126-0.666-0.243-1-0.351l-0.05-18.8v-0.45c-0.678-0.475-1.311-0.716-1.9-0.725 0.309 0.306 0.592 0.706 0.85 1.2l0.05 0.1-0.2 18.325c-0.328-0.085-0.662-0.16-1-0.226l0.2-17.85c-0.371-0.684-0.796-1.1-1.275-1.25-0.299-0.068-0.625-0.026-0.975 0.125h0.025c-0.253 0.125-0.528 0.3-0.825 0.525v1.25c-0.07 1.044-0.145 2.202-0.225 3.475-0.042 0.638-0.084 1.304-0.125 2-0.211 3.154-0.461 6.904-0.75 11.25-0.333-9e-3 -0.666-9e-3 -1 2e-3z" fill="#5E5E6F"/>
	<path d="m273.45 211.05c-0.414-0.13-0.831-0.246-1.25-0.35l0.2-18.325-0.05-0.1c-0.258-0.494-0.541-0.894-0.85-1.2 0.589 8e-3 1.222 0.25 1.9 0.725v0.45l0.05 18.8zm-10.4 72.6l-1-0.226 4.675-44.75-0.15-0.149c-0.464-0.543-0.93-0.977-1.4-1.301 1.01-0.082 2.077 0.326 3.2 1.226l-3.75 31.825v0.05l-1.575 13.325z" fill="#A2A2A2"/>
	<radialGradient id="at" cx="387.9" cy="260.8" r="10.912" gradientUnits="userSpaceOnUse">
		<stop stop-color="#2E2C3A" offset="0"/>
		<stop stop-color="#9494AF" offset="1"/>
	</radialGradient>
	<path d="m385.95 258.48c0.885-0.755 1.877-1.097 2.975-1.024h0.05c0.805 0.024 1.504 0.282 2.101 0.774l0.024 0.025c0.349 0.267 0.657 0.6 0.926 1v0.025c0.824 1.211 1.165 2.636 1.024 4.274v0.025c-0.176 1.616-0.809 2.975-1.899 4.075v-0.025c-0.722 0.697-1.497 1.147-2.325 1.35-0.258 0.052-0.508 0.094-0.75 0.125h-0.025l-0.575-0.05c-0.318-0.043-0.618-0.118-0.899-0.225-0.8-0.293-1.467-0.826-2-1.601-0.852-1.231-1.177-2.647-0.976-4.25v-0.024c0.012-0.134 0.028-0.267 0.051-0.4 0.143-1.048 0.492-1.981 1.05-2.8 0.222-0.318 0.472-0.618 0.75-0.9 0.121-0.12 0.255-0.229 0.399-0.324l0.099-0.05zm1.4 3.025c-0.066 0.033-0.116 0.083-0.149 0.15-0.434 0.399-0.667 0.899-0.7 1.5-0.025 0.218-0.025 0.426 0 0.625 0.049 0.329 0.165 0.638 0.35 0.925 0.046 0.06 0.096 0.118 0.15 0.175 0.271 0.293 0.604 0.469 1 0.525h0.25c0.434 0 0.833-0.184 1.2-0.551 0.366-0.399 0.583-0.883 0.649-1.449 0.067-0.634-0.05-1.167-0.35-1.601-0.134-0.166-0.25-0.3-0.35-0.399-0.267-0.2-0.551-0.301-0.851-0.301-0.466-0.033-0.865 0.101-1.199 0.401z" fill="url(#at)"/>
</g>
</svg>