<?xml version="1.0" encoding="UTF-8"?>
<svg viewBox="0 0 159.31212 211.20439" xmlns="http://www.w3.org/2000/svg" xmlns:xlink="http://www.w3.org/1999/xlink">
 <defs>
  <linearGradient id="a">
   <stop offset="0"/>
   <stop stop-color="#d5d5d5" offset=".5"/>
   <stop offset="1"/>
  </linearGradient>
  <linearGradient id="b">
   <stop stop-color="#b1b1b1" offset="0"/>
   <stop stop-color="#f6f6f6" offset=".4335"/>
   <stop stop-color="#b1b1b1" offset="1"/>
  </linearGradient>
  <linearGradient id="p" x1="-272.57" x2="-183.59" y1="-12.757" y2="-13.394" gradientUnits="userSpaceOnUse" xlink:href="#a"/>
  <linearGradient id="o" x2="0" y1="-52.005" y2="92.81" gradientUnits="userSpaceOnUse" xlink:href="#a"/>
  <linearGradient id="q" x1="-299.84" x2="-110.84" gradientUnits="userSpaceOnUse" xlink:href="#b"/>
  <radialGradient id="k" cx="-282.87" cy="159.59" r="94.343" gradientTransform="matrix(0 -2.1765 1.4731 0 -435.26 -528.87)" gradientUnits="userSpaceOnUse" xlink:href="#a"/>
  <radialGradient id="j" cx="-205.34" cy="8.5938" r="93.75" gradientTransform="matrix(0 10.172 -1.1485 0 -195.47 2097.4)" gradientUnits="userSpaceOnUse" xlink:href="#b"/>
  <radialGradient id="i" cx="-205.34" cy="167.3" r="93.16" gradientTransform="matrix(1.634 0 0 .93548 129.64 12)" gradientUnits="userSpaceOnUse" xlink:href="#a"/>
  <radialGradient id="h" cx="-205.34" cy="194.24" r="88.048" gradientTransform="matrix(1.726 0 0 .50513 149.08 96.559)" gradientUnits="userSpaceOnUse" xlink:href="#a"/>
  <radialGradient id="g" cx="95.156" cy="111.48" r="77.375" gradientTransform="matrix(.81775 0 0 -4.2008 17.343 637.22)" gradientUnits="userSpaceOnUse" xlink:href="#a" spreadMethod="reflect"/>
  <radialGradient id="f" cx="-282.49" cy="115.99" r="16.601" gradientTransform="matrix(.77078 0 0 6.5668 253.45 -649.81)" gradientUnits="userSpaceOnUse" xlink:href="#b"/>
  <radialGradient id="e" cx="99.938" cy="211.19" r="52.938" gradientTransform="matrix(1.4084 0 0 .15465 -342.72 189.39)" gradientUnits="userSpaceOnUse" xlink:href="#a"/>
  <radialGradient id="d" cx="-435.89" cy="195.77" r="79.491" gradientTransform="matrix(-1.0224 -.00552 .00526 -.9752 -605.33 429.88)" gradientUnits="userSpaceOnUse" xlink:href="#a"/>
  <radialGradient id="c" cx="-205.35" cy="231.71" r="89.581" gradientTransform="matrix(-1.2445 .33346 -.04019 -.14998 -451.59 334.94)" gradientUnits="userSpaceOnUse" xlink:href="#b"/>
  <radialGradient id="n" cx="95.156" cy="100.08" r="77.375" gradientTransform="matrix(1.4163 0 0 4.186 -340.11 -408.08)" gradientUnits="userSpaceOnUse" xlink:href="#a" spreadMethod="reflect"/>
  <radialGradient id="m" cx="-205.34" cy="184.58" r="88.048" fy="89.895" gradientTransform="matrix(1.1004 0 0 .66138 321.12 56.836)" gradientUnits="userSpaceOnUse" xlink:href="#a"/>
  <radialGradient id="l" cx="-205.34" cy="184.58" r="88.048" fy="89.895" gradientTransform="matrix(1.3146 0 0 .79011 64.591 37.657)" gradientUnits="userSpaceOnUse" xlink:href="#a"/>
 </defs>
 <g transform="matrix(.83707 0 0 .83707 251.54 4.7608)">
  <path d="m-205.34-5.6875c-52.005 0-94.251 6.1698-95.129 13.815h-0.0315v224.68h0.0315c0.8778 7.6447 43.123 13.815 95.129 13.815s94.251-6.1698 95.129-13.815h0.0315v-224.68h-0.0315c-0.8778-7.6447-43.123-13.815-95.129-13.815z" fill="#333"/>
  <path d="m-205.34-4.8125c-51.645 0-93.597 6.127-94.469 13.719h-0.0312v223.12h0.0312c0.87172 7.5917 42.824 13.719 94.469 13.719s93.597-6.127 94.469-13.719h0.0312v-223.12h-0.0312c-0.87172-7.5917-42.824-13.719-94.469-13.719z" fill="url(#q)"/>
  <path transform="matrix(1.1946 0 0 1.1946 -319.03 -30.242)" d="m37.25 25.031c-5.8359 0.92918-10.724 1.9847-14.281 3.1562-0.01511 0.2918-0.02568 0.58859-0.03125 0.875h-0.03125v191.84c3.647-87.782 3.8623-160.53 14.344-195.88zm117.53 0.28125c9.8829 34.923 9.5663 120.63 12.969 195.59v-191.84c-5e-3 -0.24532-0.0197-0.49885-0.0312-0.75-3.2475-1.1032-7.6634-2.1047-12.938-3z" fill="url(#f)"/>
  <path transform="matrix(1.1946 0 0 1.1946 -319.03 -30.242)" d="m22.844 28.219c-2.0999 0.69837-3.7606 1.4253-4.9062 2.1875v188.22c2.0842-62.609 3.2866-128.74 4.9062-190.41zm144.81 0.0625c1.5728 57.414 2.8276 121.58 4.7188 190.34v-188.22c-1.113-0.7405-2.7037-1.4446-4.7188-2.125z" fill="url(#g)"/>
  <path d="m-113.27956,116.17447c-7.0209,49.10187-6.37107,88.4479-33.68877,101.05675-2.9514,1.35567-5.84234,2.64103-8.67132,3.80612 10.20413-.4556 19.34612-1.70599 26.52096-3.44648v.03l.43706-.11987c1.61867-.40257 3.14718-.83494 4.54544-1.28869l.34966-.11987 1.13636-.3896c.18108-.065.34802-.11397.52448-.17981l.85664-.32969 .66434-.2697 .13986-.0598c.58623-.2499 1.1577-.51888 1.6783-.77921l.27975-.14984 .035-.03c.25804-.13382.5115-.25326.75175-.3896 .34357-.19472.67281-.39974.97902-.5994s.58677-.39316.85664-.59937c.20265-.15449.37932-.29256.55945-.44955l.17481-.14984c.14426-.1316.27396-.25636.40212-.3896l.22726-.23976c.0978-.11051.17567-.21814.26225-.32966s.15281-.2193.22728-.32966c.0577-.0852.10613-.154.15733-.23976l.0699-.11988c.0828-.14854.16443-.29943.22726-.44953 .0676-.1615.13088-.31634.17483-.47951l.0174-.09c.0474-.19454.0743-.40264.0876-.59939h.0174v-.23976-10.18958-81.84638zm-185.22466-.69083v82.7668 10.30419 .24245h.0196c.0148.19895.0447.40941.0981.60613 .007.0282.0112.0628.0196.0908 .0493.16502.12036.32161.19624.4849 .0706.15177.16207.30438.2551.4546 .0612.0985.12537.2052.19624.30307 .0345.0476.0811.0739.11775.12122 .10548.13633.20983.28942.3336.4243 .10411.11349.21671.22092.33361.33336l.29435.27276c.11953.10503.24231.19906.37286.30306l.0589.0606c.20218.15874.40051.29838.62798.45459l.11774.0909c.26634.17916.54493.33962.84381.51522 .34373.2019.71331.40921 1.09896.60613 .28574.14591.5749.28125.88306.42429l.31399.15154c.58438.26325 1.22587.53525 1.88389.78796l.4121.15154c.65256.24294 1.32271.46483 2.04088.69704l1.27555.39398 .39249.12123c1.56954.45885 3.28528.89607 5.1022,1.30317l.4906.12123v-.0303c8.05366,1.76006 18.31544,3.0245 29.76944,3.48524-3.17551-1.17818-6.42055-2.47799-9.73346-3.84892-32.63639-6.87377-30.21043-58.33524-37.81521-102.19321z" fill="url(#i)"/>
  <path transform="matrix(1.1946 0 0 1.1946 -319.03 -30.242)" d="m17.938 45.75v176.16c2.2875 1.5219 6.6241 2.921 12.5 4.1562 5.2492-5.1318 13.664-2.6235 28.156-1.9688-2.5775-1.004-5.2173-2.113-7.9062-3.2812-22.652-5.0086-24.52-37.798-28.438-70.562-1.347-34.294-2.4782-70.222-4.3125-104.5zm154.44 0c-1.6524 37.374-2.8182 72.581-4.125 104.72-3.9049 33.782-6.1393 59.976-25.25 69.219-2.3956 1.1531-4.7663 2.2591-7.0625 3.25 16.818-0.33467 21.688-0.55928 24.531 3 5.5774-1.2053 9.6951-2.5601 11.906-4.0312v-176.16z" fill="url(#m)"/>
  <path d="m-117.29537,168.90541c-6.67492,23.81869-6.05711,42.90497-32.02861,49.02135-2.80594.65762-5.55442,1.28114-8.24399,1.8463 9.70126-.22101 18.39275-.82755 25.214-1.67185v.0144l.41553-.0582c1.5389-.19529 2.99209-.40502 4.32145-.62515l.33242-.0582 1.08036-.18899 .49863-.0873 .81443-.15991c.21734-.0443.42259-.086.6316-.13084l.13297-.0291c.55733-.12123 1.10065-.25172 1.59561-.378 .0942-.024.17408-.0485.26594-.0726 .0121-.003.021-.0113.0332-.0145 .24533-.0649.48628-.12286.7147-.18899 .32662-.0944.63965-.1939.93077-.29077s.55785-.19071.81443-.29074c.19265-.075.36063-.14191.53187-.21807l.16621-.0726c.13713-.0639.26046-.12435.38228-.18898l.21608-.11631c.0929-.0535.167-.1058.24931-.15991s.14529-.10634.21608-.15992c.0549-.0413.10096-.0747.14958-.1163l.0665-.0582c.0788-.0721.15634-.14526.21607-.21808 .0643-.0783.12442-.15344.16621-.2326 .007-.0134.0102-.0301.0166-.0436 .0451-.0943.0706-.19534.0831-.29077h.0166v-.11629-4.94285-39.70264zm-176.09683,0v40.22463 5.00782 .11785h.0186c.0141.0966.0426.19895.0933.29457 .007.0136.0106.0306.0186.0442 .047.0802.11443.15629.18657.23566 .067.0737.15408.14793.24254.22094 .0583.0478.1192.0997.18656.14729l.11195.0589c.10023.0663.1995.14066.31716.2062 .099.0551.20602.10737.31718.16201l.27983.13257 .35449.14729 .0559.0295c.19222.0771.38077.14499.59702.22092 .0397.0139.0715.0302.11195.0443 .25321.087.51808.16503.80224.25038 .32678.0981.67815.19887 1.04478.29457 .27167.0709.54657.1367.83955.20621 .10311.0244.19281.0492.29851.0736 .5556.12794 1.16547.26014 1.79106.38296 .12753.025.26144.0489.3918.0737 .62039.11808 1.25752.22592 1.94031.33877l1.21268.19147 .37315.0589c1.49219.223 3.12338.4355 4.85077.63336l.46642.0589v-.0147c7.65677.8554 17.41285,1.46992 28.3024,1.69383-3.01901-.57259-6.10414-1.20431-9.25377-1.87058-31.0281-3.34064-28.72167-28.35091-35.95171-49.66585z" fill="url(#h)"/>
  <path d="m-294.93 220.92v7.5374h0.0363c0.82632 7.7769 40.589 14.054 89.545 14.054s88.719-6.2771 89.545-14.054h0.0363v-7.5374h-0.0363c-0.82632 7.7769-40.589 14.054-89.545 14.054s-88.719-6.2771-89.545-14.054h-0.0363z" fill="url(#c)"/>
  <path transform="matrix(.90257 0 0 .97368 -10.554 239.7)" d="m-118.19-13.394c0 7.7029-43.711 13.947-97.632 13.947s-97.632-6.2445-97.632-13.947 43.711-13.947 97.632-13.947 97.632 6.2445 97.632 13.947z" fill="url(#p)"/>
  <path transform="matrix(.786 0 0 .84793 -35.711 238.01)" d="m-118.19-13.394c0 7.7029-43.711 13.947-97.632 13.947s-97.632-6.2445-97.632-13.947 43.711-13.947 97.632-13.947 97.632 6.2445 97.632 13.947z" fill="url(#o)"/>
  <path d="m-203.19 213.86c-35.174 0-64.766 3.5924-73.325 8.4428 12.409-3.7254 38.066-6.3107 67.824-6.3107 41.869 0 75.834 5.0484 75.834 11.3 0 1.0104-0.9331 2.01-2.5968 2.9422 5.1095-1.5232 8.0544-3.212 8.0544-5.0315 0-6.2513-33.922-11.342-75.79-11.342z" fill="url(#e)"/>
  <path d="m-205.58 238.48c37.501 0 69.051-3.5924 78.177-8.4428-13.23 3.7254-40.585 6.3107-72.311 6.3107-44.639 0-80.852-5.0484-80.852-11.3 0-1.0104 0.99484-2.01 2.7686-2.9422-5.4475 1.5232-8.5872 3.212-8.5872 5.0315 0 6.2513 36.166 11.342 80.805 11.342z" fill="url(#d)"/>
  <path d="m-115.54147,129.51862c-6.80788,49.89191-6.17777,89.87107-32.66661,102.6828-2.86183,1.37749-5.66506,2.68355-8.40821,3.86736 9.89451-.46293 18.75913-1.73344 25.71626-3.50193v.0304l.4238-.12178c1.56956-.40906 3.0517-.84838 4.40754-1.30945l.33904-.12179c.37347-.13002.74644-.26212 1.10188-.39587 .17559-.0659.33746-.11579.50856-.1827 .28057-.1098.56235-.22286.83065-.33498l.64419-.27405 .13561-.0609c.56844-.25392 1.12258-.52723 1.6274-.79173l.27124-.15226 .0339-.0305c.25021-.13598.49596-.25734.72893-.39587 .33313-.19789.6524-.4062.94931-.60906s.56897-.39949.83066-.60902c.19649-.15698.36781-.29726.54246-.45677l.16952-.15224c.13986-.13374.26565-.26051.3899-.39588 .0773-.0841.14912-.15884.22038-.24363 .0947-.11228.17033-.22164.25428-.33496s.14818-.22282.22038-.33498l.15256-.2436 .0678-.1218c.0804-.15095.15945-.30427.22037-.45679 .0656-.16409.1269-.32141.16952-.48722 .007-.0282.0104-.0631.0169-.0914 .046-.19767.072-.40913.0848-.60905h.0169v-.2436-10.35355-83.16333zm-179.60463,0v84.25671 10.48966 .24682h.019c.0144.20253.0435.41678.0952.61705 .007.0286.0108.064.019.0925 .0479.168.11671.3274.19029.49364 .0683.15451.15715.30985.24737.46278 .0595.10038.12157.20889.19028.30851 .0335.0484.0785.0753.11418.12342 .10222.13879.20347.29463.32347.43192 .10098.11555.21013.22491.3235.33937 .0903.0912.18735.18719.28541.27767 .1159.10692.23497.20265.36155.30851l.057.0617c.19605.1616.38836.30374.60891.46277l.11418.0926c.25826.18237.5284.34571.81822.52447 .33329.20554.69166.41657 1.0656.61705 .27708.14853.55745.28631.85627.43193l.30446.15425c.56666.268 1.18868.54489 1.82673.80218l.39961.15426c.63275.2473 1.28257.47319 1.97896.70957 .39898.13552.81763.26933 1.23683.40107l.38059.12342c1.52191.4671 3.18559.91221 4.94739,1.32664 .16482.0387.30892.0851.47571.1234v-.0308c7.80929,1.79176 17.75971,3.07896 28.86618,3.54798-3.07915-1.1994-6.22573-2.5226-9.4381-3.91822-31.64617-6.9975-29.2938-59.38536-36.66786-104.03281z" fill="url(#l)"/>
  <path d="m-297.6 24.421v200.42h0.0373c0.25038 2.0886 4.0387 4.0384 10.469 5.7746-5.2424-59.233-6.4432-135.96-10.506-206.19zm184.5 0c-3.8384 80.298-5.3972 151.78-10.506 206.19 6.4422-1.7371 10.219-3.6846 10.469-5.7746h0.0373v-200.42z" fill="url(#n)"/>
  <path d="m-205.34-4.7525c-52.524 0-95.089 6.2326-95.089 13.909s42.565 13.877 95.089 13.877 95.089-6.2003 95.089-13.877-42.565-13.909-95.089-13.909zm0 0.6146c50.241 0 90.973 5.9518 90.973 13.295s-40.733 13.295-90.973 13.295-90.973-5.9518-90.973-13.295 40.733-13.295 90.973-13.295z" fill="url(#k)"/>
  <path d="m-205.34-4.9375c-25.771 0-49.093 1.4788-66 3.8438-8.4535 1.1825-15.293 2.5796-20.062 4.1562-2.3846 0.78834-4.2552 1.6069-5.5625 2.5s-2.125 1.8901-2.125 3.0312 0.81768 2.1702 2.125 3.0625 3.1779 1.7131 5.5625 2.5c4.7692 1.5738 11.609 2.9776 20.062 4.1562 16.907 2.3573 40.23 3.8125 66 3.8125s49.093-1.4552 66-3.8125c8.4535-1.1787 15.293-2.5824 20.062-4.1562 2.3846-0.78691 4.2552-1.6077 5.5625-2.5s2.125-1.9213 2.125-3.0625-0.81773-2.1382-2.125-3.0312-3.1779-1.7117-5.5625-2.5c-4.7692-1.5767-11.609-2.9738-20.062-4.1562-16.907-2.3649-40.229-3.8438-66-3.8438zm0 1.5938c24.613 0 46.891 1.3747 63 3.625 8.0544 1.1252 14.569 2.4635 19.031 3.9375 2.2314 0.73698 3.9708 1.5146 5.0938 2.2812s1.5938 1.4751 1.5938 2.0938-0.4708 1.3584-1.5938 2.125-2.8624 1.513-5.0938 2.25c-4.4627 1.474-10.977 2.8436-19.031 3.9688-16.109 2.2503-38.387 3.625-63 3.625s-46.891-1.3747-63-3.625c-8.0544-1.1252-14.569-2.4948-19.031-3.9688-2.2314-0.73698-3.9708-1.4834-5.0938-2.25s-1.5938-1.5064-1.5938-2.125 0.4708-1.3271 1.5938-2.0938 2.8624-1.5443 5.0938-2.2812c4.4627-1.474 10.977-2.8123 19.031-3.9375 16.109-2.2503 38.387-3.625 63-3.625z" fill="url(#j)"/>
  <path d="m-236.85 191.17v-146.29c-0.83446-20.257-2.4778-20.874 13.918-18.912-6.9447 47.458-8.5354 108.93-13.918 165.2z" fill="#fff"/>
 </g>
</svg>
